<svg width="25" height="26" viewBox="0 0 25 26" fill="none" xmlns="http://www.w3.org/2000/svg">
<path d="M20.8023 12.074V18.135M15.7515 20.1553V23.1858M9.69057 20.1553V23.1858M4.63977 12.074V18.135M10.7007 5.00292L9.18549 2.9826M14.7414 5.00292L16.2566 2.9826M7.16517 11.0639H18.2769M7.16517 10.5588C7.16517 9.08529 7.75052 7.67213 8.79245 6.6302C9.83438 5.58827 11.2475 5.00292 12.721 5.00292C14.1946 5.00292 15.6077 5.58827 16.6496 6.6302C17.6916 7.67213 18.2769 9.08529 18.2769 10.5588V17.1248C18.2769 18.5532 18.2769 19.2674 17.8325 19.7108C17.389 20.1553 16.6748 20.1553 15.2464 20.1553H10.1956C8.76728 20.1553 8.0531 20.1553 7.60964 19.7108C7.16517 19.2674 7.16517 18.5532 7.16517 17.1248V10.5588Z" stroke="#4B4848" stroke-width="1.51524" stroke-linecap="round" stroke-linejoin="round"/>
</svg>
