<svg width="66" height="24" viewBox="0 0 66 24" fill="none" xmlns="http://www.w3.org/2000/svg">
<path d="M48.8692 20.3279L20.2397 20.2987C19.8008 20.3789 19.1498 21.7924 18.6158 22.3097C15.9825 24.867 11.5864 24.4663 9.44325 21.5082C8.94586 20.816 8.76299 20.0874 8.2656 19.439C4.79114 19.0018 -0.438825 18.929 0.0366264 14.1202C0.197549 12.5027 1.19965 12.3716 1.46298 11.5337C1.81408 10.3971 1.16308 7.91987 1.84334 7.14027C2.4212 6.46996 5.77862 6.65939 6.80267 6.54282C10.6794 6.0838 15.1779 1.26049 19.3326 0.502746C22.7413 -0.123848 32.5502 -0.0874182 36.1344 0.284167C40.0916 0.692181 45.5117 5.15848 49.4909 6.46267C51.9633 7.27142 55.5913 7.2787 58.3416 7.9563C63.674 9.26777 66.3658 10.8561 65.9708 16.7796C65.8172 19.0528 65.7294 20.0729 63.1912 20.3133C62.372 20.3935 60.792 20.1384 60.1557 20.3497C59.9216 20.4226 59.2048 21.7851 58.8756 22.1348C56.0009 25.1949 50.4126 24.3279 48.8765 20.357L48.8692 20.3279ZM3.2697 8.45903V12.1822C3.2697 12.4882 2.10667 13.2605 2.01158 13.5956C1.8726 14.0838 1.82871 15.4609 2.02621 15.9053C2.53823 17.0346 6.85387 17.5811 8.0681 17.5446C8.8654 15.3516 9.99185 13.2459 12.3691 12.4663C16.6628 11.0601 20.2762 14.1712 20.6347 18.4044H47.6623C48.5327 18.4335 48.3718 16.9909 48.6717 16.1603C50.6247 10.674 58.6708 10.8561 60.2215 16.3789C60.4336 17.1366 60.2507 17.8798 60.6896 18.3971H64.047C64.1348 15.6211 65.0272 13.3843 62.4963 11.4463C60.4409 9.87251 51.8974 8.3206 49.191 8.26231C48.1962 8.24045 47.2014 8.95448 45.9433 9.04919C40.077 9.48635 33.0988 8.80876 27.152 8.64847C23.9189 8.56103 20.6859 8.77233 17.4601 8.3716C16.8969 8.19673 17.0359 6.82697 17.3943 6.73954L27.8103 6.93626L27.0423 1.77779C25.1844 2.22952 23.107 1.82879 21.1979 1.97451C15.8948 2.38253 12.0034 7.61386 7.00748 8.2696C5.88102 8.41531 4.43272 8.34974 3.2697 8.46632V8.45903ZM46.214 6.73954C43.1857 5.77779 40.194 3.08927 37.2023 2.25138C34.6202 1.52278 31.4603 2.28052 28.7685 1.77779L29.5366 6.93626C33.1281 7.30785 36.7634 7.06012 40.3769 7.11841C41.9934 7.14755 43.8879 7.52643 45.5556 7.3297C45.914 7.28599 46.2798 7.24227 46.214 6.74683V6.73954ZM58.6196 18.0692C58.6196 15.7596 56.7397 13.8871 54.421 13.8871C52.1022 13.8871 50.2224 15.7596 50.2224 18.0692C50.2224 20.3789 52.1022 22.2514 54.421 22.2514C56.7397 22.2514 58.6196 20.3789 58.6196 18.0692ZM18.5866 18.0984C18.5866 15.7814 16.6994 13.9089 14.3806 13.9089C12.0619 13.9089 10.1747 15.7887 10.1747 18.0984C10.1747 20.408 12.0619 22.2878 14.3806 22.2878C16.6994 22.2878 18.5866 20.408 18.5866 18.0984Z" fill="black"/>
</svg>
