<svg width="20" height="20" viewBox="0 0 20 20" fill="none" xmlns="http://www.w3.org/2000/svg">
<path d="M9.27862 2.28984L8.29316 1.69934L8.10545 2.83262C7.80668 4.6221 6.58424 6.28488 5.23587 7.45336C2.59624 9.74183 2.01826 12.2289 2.83556 14.282C3.61768 16.2467 5.60269 17.5919 7.61741 17.8164L8.08355 17.868C6.93072 17.1633 6.19084 15.517 6.44893 14.2867C6.7039 13.0775 7.57361 11.945 9.24421 10.9001L10.0865 10.3746L10.401 11.317C10.5863 11.8739 10.907 12.3212 11.2331 12.7756C11.3896 12.9946 11.5483 13.216 11.6938 13.4514C12.1967 14.2687 12.3297 15.1775 12.0051 16.0793C11.7094 16.899 11.2222 17.5434 10.5503 17.9008L11.309 17.8164C13.2001 17.606 14.5884 16.9592 15.4902 15.8775C16.3841 14.8052 16.6978 13.4248 16.6978 11.9552C16.6978 10.5865 16.1354 9.17557 15.4722 8.00162C14.6948 6.62666 13.6804 5.48477 12.5729 4.37808C12.3813 4.76132 12.3961 4.91618 12.0019 5.5317C11.4901 4.17235 10.5293 3.02861 9.27862 2.28984Z" fill="white"/>
</svg>
