<svg width="62" height="33" viewBox="0 0 62 33" fill="none" xmlns="http://www.w3.org/2000/svg">
<path d="M2.93673 2.68358C2.93673 2.10698 3.21366 1.82798 3.68279 1.82798C3.7939 1.81621 3.90607 1.83617 4.00629 1.88555C4.10651 1.93493 4.19069 2.01171 4.24906 2.10698C4.37112 2.36457 4.42452 2.64934 4.40406 2.93365H6.19999V2.74351C6.19999 1.52211 5.53039 0.579712 3.66419 0.579712C1.74219 0.579712 1.06433 1.64405 1.06433 2.90265C1.06433 5.87038 4.47639 4.91558 4.47639 6.62265C4.47639 7.07731 4.26973 7.56711 3.63112 7.56711C2.99253 7.56711 2.81893 7.11245 2.81893 6.51105V6.24238H1.03333V6.75905C1.03333 8.41238 2.28986 8.82571 3.64559 8.82571C5.35679 8.82571 6.35499 8.10238 6.35499 6.30438C6.34672 3.51025 2.93673 4.33691 2.93673 2.68358Z" fill="#221F1F"/>
<path d="M10.5855 3.69834H9.09541V0.734741H7.23541V8.66454H9.09541V5.27314H10.5855V8.66454H12.4455V0.734741H10.5855V3.69834Z" fill="#221F1F"/>
<path d="M16.2298 0.579712C13.7746 0.579712 13.4336 2.17724 13.4336 4.70064C13.4336 7.22404 13.7746 8.81331 16.2298 8.81331C18.8751 8.81331 19.0136 6.89958 19.0136 4.70064C19.0136 2.50171 18.8751 0.579712 16.2298 0.579712ZM16.2174 7.57331C15.4858 7.57331 15.3742 6.87271 15.3742 4.69651C15.3742 2.52031 15.461 1.82178 16.2174 1.82178C16.9738 1.82178 17.0854 2.52238 17.0854 4.70064C17.0854 6.87891 16.9738 7.57331 16.2174 7.57331Z" fill="#221F1F"/>
<path d="M25.4058 6.37881H25.3831L24.4944 0.734741H22.7605L21.9338 6.37881H21.9131L21.2125 0.734741H19.3525L20.7599 8.66454H22.8266L23.5933 3.03287H23.6161L24.4262 8.66454H26.4949L27.8713 0.734741H26.0713L25.4058 6.37881Z" fill="#221F1F"/>
<path d="M34.0108 7.54032L31.8242 0.627319H30.8818V8.77412H31.5659V1.99339L33.678 8.78445H34.3063L36.4143 1.98719V8.77412H37.0984V0.627319H36.1415L34.0108 7.54032Z" fill="#221F1F"/>
<path d="M38.8412 4.84532H41.9412V4.21499H38.8412V1.25759H42.1644V0.627258H38.1592V8.76579H42.2636V8.13546H38.8412V4.84532Z" fill="#221F1F"/>
<path d="M44.4891 1.26589H46.6116V8.77409H47.2833V1.26589H49.3954V0.635559H44.4891V1.26589Z" fill="#221F1F"/>
<path d="M53.8201 4.10339H50.561V0.627258H49.879V8.77406H50.561V4.74199H53.8201V8.77406H54.5042V0.627258H53.8201V4.10339Z" fill="#221F1F"/>
<path d="M55.8806 8.13546V4.84532H58.9827V4.21499H55.8806V1.25759H59.2038V0.627258H55.1965V8.76579H59.303V8.13546H55.8806Z" fill="#221F1F"/>
<path d="M62.0004 10.7787C62.0032 10.8933 61.9829 11.0073 61.9407 11.1138C61.8984 11.2203 61.8351 11.3173 61.7545 11.3987C61.6779 11.4795 61.5856 11.5435 61.4832 11.5869C61.3807 11.6303 61.2705 11.6521 61.1593 11.6509C61.0468 11.6509 60.9355 11.6286 60.8318 11.5852C60.7281 11.5419 60.634 11.4784 60.555 11.3984C60.4759 11.3185 60.4136 11.2236 60.3715 11.1194C60.3294 11.0151 60.3085 10.9035 60.3099 10.7911C60.3069 10.6765 60.3272 10.5625 60.3694 10.456C60.4117 10.3494 60.4751 10.2525 60.5558 10.1711C60.6339 10.0903 60.7278 10.0262 60.8315 9.98284C60.9353 9.93949 61.0468 9.91777 61.1593 9.91899C61.2705 9.91779 61.3807 9.93957 61.4832 9.98295C61.5856 10.0263 61.6779 10.0904 61.7545 10.1711C61.8335 10.2512 61.8959 10.3461 61.9381 10.4504C61.9803 10.5547 62.0015 10.6662 62.0004 10.7787ZM61.8661 10.7787C61.8679 10.5848 61.7937 10.3978 61.6594 10.2579C61.5975 10.1904 61.5225 10.1362 61.4391 10.0985C61.3556 10.0609 61.2653 10.0406 61.1737 10.0389C61.0769 10.0373 60.9808 10.0562 60.8918 10.0943C60.8028 10.1324 60.7228 10.1889 60.6571 10.26C60.5897 10.3295 60.5367 10.4117 60.5012 10.5018C60.4658 10.5919 60.4485 10.6881 60.4504 10.7849C60.4482 10.8809 60.4653 10.9762 60.5008 11.0654C60.5363 11.1545 60.5895 11.2356 60.6571 11.3037C60.7829 11.4365 60.9563 11.514 61.1392 11.519C61.3221 11.5241 61.4996 11.4563 61.6325 11.3305L61.6594 11.3037C61.7273 11.2345 61.7807 11.1524 61.8162 11.0622C61.8517 10.972 61.8686 10.8756 61.8661 10.7787ZM61.6305 10.5535C61.6324 10.5964 61.6245 10.6393 61.6073 10.6787C61.5901 10.7181 61.5641 10.753 61.5313 10.7808C61.4675 10.8358 61.386 10.8659 61.3019 10.8655L61.6119 11.2789H61.4197L61.1117 10.8655H60.9361V11.2789H60.779V10.2455H61.2791C61.3729 10.2397 61.4653 10.2701 61.5375 10.3303C61.5687 10.3581 61.5933 10.3926 61.6094 10.4313C61.6255 10.4699 61.6327 10.5117 61.6305 10.5535ZM61.4713 10.5535C61.4713 10.4501 61.3907 10.3985 61.2357 10.3985H60.9361V10.7291H61.2461C61.399 10.7291 61.4713 10.6733 61.4713 10.5535Z" fill="#221F1F"/>
<path d="M58.8339 10.4109H1.20282C1.02976 10.4081 0.862643 10.4739 0.737958 10.5939C0.613272 10.714 0.541153 10.8785 0.537354 11.0515V20.4115C0.5387 20.4975 0.556982 20.5824 0.591155 20.6614C0.625329 20.7404 0.674724 20.8118 0.736521 20.8717C0.798317 20.9316 0.871304 20.9787 0.951313 21.0104C1.03132 21.042 1.11678 21.0576 1.20282 21.0562H58.8339C58.9201 21.0579 59.0058 21.0425 59.086 21.011C59.1663 20.9794 59.2395 20.9323 59.3015 20.8724C59.3635 20.8125 59.4131 20.741 59.4474 20.6619C59.4817 20.5828 59.5001 20.4977 59.5014 20.4115V11.0598C59.5009 10.9737 59.4833 10.8885 59.4497 10.8092C59.4162 10.7299 59.3672 10.658 59.3058 10.5977C59.2443 10.5374 59.1715 10.4899 59.0916 10.4578C59.0117 10.4257 58.9262 10.4098 58.8401 10.4109H58.8339Z" fill="white"/>
<path d="M58.8006 21.6267H1.16742C0.99382 21.6244 0.826397 21.691 0.701713 21.8118C0.577029 21.9326 0.505215 22.0979 0.501953 22.2715V31.6252C0.503299 31.7112 0.521581 31.7962 0.555755 31.8751C0.589928 31.9541 0.639324 32.0256 0.701121 32.0854C0.762917 32.1453 0.835904 32.1924 0.915912 32.2241C0.995921 32.2558 1.08138 32.2714 1.16742 32.27H58.8006C58.8867 32.2716 58.9722 32.2562 59.0524 32.2247C59.1325 32.1931 59.2056 32.146 59.2674 32.0861C59.3293 32.0261 59.3787 31.9546 59.4128 31.8755C59.4468 31.7964 59.4649 31.7113 59.466 31.6252V22.2611C59.4649 22.175 59.4468 22.09 59.4128 22.0109C59.3787 21.9318 59.3293 21.8602 59.2674 21.8003C59.2056 21.7403 59.1325 21.6932 59.0524 21.6617C58.9722 21.6301 58.8867 21.6147 58.8006 21.6163V21.6267Z" fill="white"/>
<path fill-rule="evenodd" clip-rule="evenodd" d="M59.9995 20.4114V11.0598C59.9951 10.7543 59.8701 10.4629 59.6518 10.2492C59.4334 10.0355 59.1394 9.91676 58.8339 9.91898H1.2028C0.897466 9.91677 0.603674 10.0355 0.385645 10.2493C0.167615 10.4631 0.0430823 10.7545 0.0392667 11.0598V20.4114C0.0405433 20.5893 0.0834545 20.7643 0.164562 20.9226C0.24567 21.0809 0.36272 21.218 0.506333 21.3228C0.351525 21.4258 0.224384 21.5652 0.136094 21.7288C0.047803 21.8924 0.00106832 22.0752 0 22.2611L0 31.6148C0.00109446 31.9214 0.123794 32.2151 0.341165 32.4313C0.558535 32.6475 0.852813 32.7686 1.1594 32.768H58.8008C59.1069 32.7697 59.4012 32.6503 59.6195 32.4358C59.8379 32.2213 59.9626 31.9292 59.9664 31.6231V22.2611C59.9654 22.0827 59.9224 21.9071 59.8409 21.7484C59.7594 21.5897 59.6417 21.4524 59.4973 21.3476C59.6509 21.2443 59.777 21.105 59.8645 20.9418C59.952 20.7787 59.9983 20.5966 59.9995 20.4114ZM59.4663 31.6148C59.4649 31.7009 59.4466 31.7858 59.4125 31.8648C59.3783 31.9437 59.3289 32.0152 59.2671 32.0751C59.2053 32.135 59.1323 32.1821 59.0523 32.2137C58.9723 32.2454 58.8868 32.261 58.8008 32.2596H1.16767C1.08156 32.2613 0.995975 32.2459 0.915845 32.2143C0.835715 32.1827 0.76262 32.1356 0.700768 32.0757C0.638916 32.0158 0.58953 31.9442 0.555451 31.8651C0.521372 31.786 0.503275 31.701 0.5022 31.6148V22.2611C0.507604 22.0892 0.580425 21.9262 0.704937 21.8075C0.829448 21.6888 0.995657 21.6238 1.16767 21.6266H58.8008C58.9744 21.6244 59.1418 21.691 59.2665 21.8118C59.3912 21.9326 59.463 22.0979 59.4663 22.2714V31.6148ZM59.5014 20.4114C59.5001 20.4977 59.4817 20.5828 59.4474 20.6619C59.4131 20.741 59.3635 20.8125 59.3015 20.8724C59.2395 20.9323 59.1663 20.9794 59.086 21.011C59.0058 21.0425 58.9201 21.0579 58.8339 21.0562H1.2028C1.11676 21.0576 1.0313 21.042 0.951292 21.0104C0.871284 20.9787 0.798297 20.9316 0.736501 20.8717C0.674704 20.8118 0.625309 20.7403 0.591135 20.6614C0.556962 20.5824 0.53868 20.4975 0.537333 20.4114V11.0598C0.540595 10.8867 0.612192 10.722 0.736488 10.6016C0.860785 10.4812 1.02768 10.4148 1.20073 10.417H58.8339C58.9199 10.4154 59.0054 10.4307 59.0855 10.4621C59.1657 10.4935 59.2388 10.5404 59.3008 10.6001C59.3628 10.6598 59.4124 10.7311 59.4468 10.81C59.4812 10.8889 59.4998 10.9737 59.5014 11.0598V20.4114Z" fill="#231F20"/>
<path d="M10.7694 10.88V20.5933H20.0694V10.88H10.7694Z" fill="#231F20"/>
<path d="M20.46 10.88V20.5933H29.76V10.88H20.46Z" fill="#231F20"/>
<path d="M30.2333 10.88V20.5933H39.5333V10.88H30.2333Z" fill="#231F20"/>
<path d="M39.9983 10.88V20.5933H49.2983V10.88H39.9983Z" fill="#231F20"/>
<path d="M1.00488 10.88V20.5933H10.3049V10.88H1.00488Z" fill="#231F20"/>
<path d="M5.86756 19.1467C3.93936 19.1467 2.91016 17.7186 2.91016 15.7945C2.91016 13.7051 4.13569 12.4486 5.87582 12.4486C7.47129 12.4486 8.10162 13.1327 8.54596 14.3561L6.91536 14.9906C6.68182 14.3851 6.46069 14.0027 5.86756 14.0027C5.11736 14.0027 4.79082 14.7571 4.79082 15.7863C4.79082 16.7824 5.10702 17.5719 5.88616 17.5719C6.45036 17.5719 6.69216 17.266 7.04349 16.6501L8.56456 17.4768C8.13056 18.32 7.40516 19.1467 5.86756 19.1467Z" fill="white"/>
<path d="M15.9795 16.3959H14.9028L15.0247 15.9702C15.2562 15.1435 15.3595 14.786 15.438 14.3499C15.5207 14.786 15.622 15.1373 15.8514 15.9702L15.9795 16.3959ZM18.7158 18.9689L16.3598 12.4775H14.5411L12.1934 18.9689H14.1216L14.4667 17.8178H16.4156L16.7669 18.9689H18.7158Z" fill="white"/>
<path d="M26.0278 14.6703C26.0278 15.1332 25.7964 15.3936 25.2012 15.3936H24.141V13.98H25.2301C25.8067 13.98 26.0278 14.2611 26.0278 14.6703ZM27.9478 19.0103L26.6499 16.5303C27.3629 16.2058 27.8176 15.6044 27.8176 14.631C27.8176 13.0934 26.807 12.5168 25.2859 12.5168H22.3926V19.0124H24.1616V16.8072H24.887L25.9452 19L27.9478 19.0103Z" fill="white"/>
<path d="M34.1003 14.0379V14.941H36.1297V16.46H34.1003V18.9999H32.3105V12.5085H37.4462V14.0379H34.1003Z" fill="white"/>
<path d="M45.1171 16.4476H44.0424L44.1643 16.0219C44.3958 15.1952 44.4971 14.8377 44.5777 14.4016C44.6624 14.8377 44.7637 15.1869 44.991 16.0219L45.1171 16.4476ZM47.8554 19.0206L45.4994 12.5333H43.6807L41.333 19.0206H43.2612L43.6125 17.8695H45.5593L45.9148 19.0206H47.8554Z" fill="white"/>
<path d="M49.6992 10.8531V20.5665H58.9992V10.8531H49.6992ZM53.4358 20.3205L53.599 20.0932C53.8524 19.7154 54.0829 19.3227 54.2893 18.9173C54.4608 19.2686 54.715 19.7026 54.9692 20.1077L55.116 20.335L53.4358 20.3205ZM58.745 20.3205H57.3604L55.4032 17.545L57.6456 14.3933H55.4136L55.0188 15.0133C54.7678 15.3948 54.5373 15.7894 54.3286 16.1955C54.1258 15.7882 53.8987 15.3934 53.6486 15.0133L53.2539 14.3933H50.9702L53.2146 17.5843L51.2327 20.3309H49.9493V11.1115H58.745V20.3205Z" fill="#231F20"/>
<path d="M0.956848 21.9966V31.7099H10.2568V21.9966H0.956848ZM10.0026 22.2466V31.4619H1.20485V22.2466H10.0026Z" fill="#3678BC"/>
<path d="M10.7343 22.0814V31.7947H20.0467V22.0814H10.7343Z" fill="#3678BC"/>
<path d="M20.4355 22.0813V31.7946H29.7355V22.0813H20.4355Z" fill="#3678BC"/>
<path d="M30.1981 22.0814V31.7947H39.4981V22.0814H30.1981Z" fill="#3678BC"/>
<path d="M39.9648 22.0813V31.7946H49.2648V22.0813H39.9648Z" fill="#3678BC"/>
<path d="M49.7509 22.1537V31.867H59.0509V22.1537H49.7509Z" fill="#3678BC"/>
<path d="M7.83264 30.2302V29.046H6.42317V23.3606H4.91864C4.91326 23.5246 4.86479 23.6842 4.77811 23.8235C4.69349 23.9521 4.57467 24.0544 4.43504 24.1191C4.27539 24.189 4.10607 24.2343 3.93284 24.2534C3.72728 24.2805 3.52018 24.2943 3.31284 24.2947V25.4211H4.75951V29.046H3.30664V30.2405L7.83264 30.2302Z" fill="#3678BC"/>
<path d="M18.3647 26.9587C18.3647 28.0527 18.0891 28.8848 17.538 29.4552C17.2659 29.7457 16.9353 29.9753 16.568 30.1288C16.2008 30.2823 15.8052 30.3563 15.4073 30.346C15.0178 30.3563 14.6304 30.2845 14.2704 30.1353C13.9105 29.9861 13.5859 29.7628 13.3179 29.48C12.7668 28.9069 12.4912 28.074 12.4912 26.9814C12.4912 25.8889 12.7668 25.0498 13.3179 24.4642C13.5888 24.1782 13.9173 23.9529 14.2818 23.8033C14.6463 23.6536 15.0383 23.5831 15.4321 23.5962C15.8244 23.58 16.2156 23.6481 16.5792 23.7961C16.9429 23.944 17.2706 24.1684 17.5401 24.4539C18.0843 25.0284 18.3592 25.8634 18.3647 26.9587ZM16.5377 26.9794C16.5253 25.7807 16.1492 25.1779 15.4093 25.171C14.6695 25.1641 14.3009 25.7607 14.3037 26.9608C14.3037 28.1594 14.6922 28.7608 15.4321 28.7691C16.1719 28.7774 16.5336 28.1698 16.5336 26.9794H16.5377Z" fill="white"/>
<path d="M27.5259 30.162H25.8333L25.5316 28.7422C25.2988 27.5697 25.15 26.6659 25.0852 26.0307C25.0232 26.6673 24.8737 27.5711 24.6367 28.7422L24.335 30.162H22.6817L21.1193 23.6169H22.9793L23.157 24.7081C23.332 25.7359 23.4629 26.6859 23.5497 27.558C23.6571 26.6941 23.8204 25.7497 24.0374 24.7184L24.2627 23.6169H25.916L26.1433 24.7184C26.35 25.7517 26.5215 26.6941 26.6269 27.558C26.7165 26.6817 26.8481 25.7318 27.0217 24.7081L27.1994 23.6169H29.0594L27.5259 30.162Z" fill="white"/>
<path d="M36.1773 30.162L34.6645 28.0126C34.2787 27.4464 33.9494 26.9352 33.6766 26.4792C33.712 26.727 33.73 26.977 33.7303 27.2273V30.162H32.0439V23.6168H33.5939L34.9869 25.5512C35.1481 25.7703 35.3361 26.0431 35.5469 26.3779C35.7024 26.6122 35.8445 26.8551 35.9727 27.1054V26.7809C35.9727 26.6383 35.9561 26.5019 35.9458 26.3366C35.9334 26.0018 35.9272 25.6938 35.9272 25.4128V23.6251H37.6136V30.162H36.1773Z" fill="white"/>
<path d="M42.1699 30.162V23.6168H47.0225V25.142H43.9039V26.0121H45.7763V27.5187H43.9039V28.6388H47.0845V30.162H42.1699Z" fill="white"/>
<path d="M55.1506 30.162L54.1173 27.9486H53.4084V30.162H51.6807V23.6168H54.5182C55.2725 23.6168 55.8739 23.7656 56.3224 24.0922C56.7709 24.4187 56.9837 24.9808 56.9899 25.7455C56.972 26.7099 56.5924 27.3492 55.8512 27.6634L57.1139 30.1599L55.1506 30.162ZM55.2395 25.7992C55.2395 25.3425 54.9873 25.1069 54.4665 25.0966H53.4022V26.5226H54.4355C54.9894 26.5164 55.2457 26.2766 55.2395 25.7992Z" fill="white"/>
</svg>
