<svg width="23" height="22" viewBox="0 0 23 22" fill="none" xmlns="http://www.w3.org/2000/svg">
<path d="M11.6108 13.1045C12.7266 13.1045 13.6311 12.2 13.6311 11.0842C13.6311 9.96837 12.7266 9.06384 11.6108 9.06384C10.495 9.06384 9.59045 9.96837 9.59045 11.0842C9.59045 12.2 10.495 13.1045 11.6108 13.1045Z" stroke="#4B4848" stroke-width="1.51524"/>
<path d="M5.54967 11.0842H9.59031M13.6309 11.0842H17.6716M8.58015 16.333L10.6005 12.8338M12.6208 9.33462L14.6411 5.83543M14.6411 16.333L12.6208 12.8338M10.6005 9.33462L8.58015 5.83543M6.55983 2.33421C8.09472 1.446 9.83728 0.979694 11.6106 0.982619C17.1897 0.982619 21.7122 5.5051 21.7122 11.0842C21.7122 16.6633 17.1897 21.1858 11.6106 21.1858C6.03152 21.1858 1.50903 16.6633 1.50903 11.0842C1.50903 9.24471 2.00098 7.51835 2.86063 6.03342" stroke="#4B4848" stroke-width="1.51524" stroke-linecap="round"/>
<path d="M14.6412 16.334C13.3677 17.0691 11.8705 17.3161 10.4284 17.0292C8.98625 16.7422 7.69764 15.9408 6.80259 14.7742C5.90753 13.6076 5.46708 12.1554 5.56329 10.6882C5.65949 9.22097 6.2858 7.83874 7.32551 6.79902C8.36523 5.75931 9.74746 5.133 11.2147 5.0368C12.6819 4.94059 14.1341 5.38104 15.3007 6.2761C16.4673 7.17115 17.2687 8.45977 17.5557 9.90187C17.8426 11.344 17.5956 12.8412 16.8605 14.1147" stroke="#4B4848" stroke-width="1.51524" stroke-linecap="round"/>
</svg>
