<svg width="57" height="24" viewBox="0 0 57 24" fill="none" xmlns="http://www.w3.org/2000/svg">
<g clip-path="url(#clip0_35_1850)">
<path d="M16.2623 20.6625C16.0918 20.8344 15.9142 21.4718 15.6229 21.8371C13.3139 24.7234 8.99436 24.6732 6.85588 21.6508C6.55749 21.2283 6.35856 20.3688 5.96781 20.1182C5.4847 19.8102 3.1473 19.7816 2.16686 19.4378C1.18643 19.094 0.277048 18.4494 0.0852246 17.3679C-0.0142395 16.8308 -0.0355532 15.3626 0.0852246 14.8397C0.227316 14.1952 0.973296 13.9588 1.07986 13.4145C1.48483 11.273 0.397826 9.9051 1.97504 7.72067C3.03362 6.23813 8.21286 0.959707 9.75455 0.487012C10.259 0.329447 11.1257 0.193369 11.6586 0.150396C17.7614 -0.322298 24.4255 0.501336 30.5923 0.143234C32.3542 0.279313 33.4341 0.981193 34.855 1.91942C36.759 3.17278 40.5742 6.81826 42.2509 7.47716C44.0483 8.18621 48.1335 8.29364 50.3217 8.70903C51.906 9.00984 54.3144 9.30348 55.4512 10.4781C56.5879 11.6526 56.1261 12.3545 56.3535 13.7296C56.4458 14.3098 56.936 14.8612 57 15.3482C57.0355 15.6634 56.8366 17.8621 56.7584 18.2059C56.2753 20.2686 52.9433 20.111 51.3234 20.3617C49.6965 23.9355 45.1424 25.3536 42.2011 22.453C41.7251 21.9875 41.1355 20.6983 40.7447 20.6267C33.0576 20.6123 25.3704 20.6482 17.6762 20.6338C17.2428 20.6338 16.5749 20.3545 16.2623 20.6696V20.6625ZM12.9445 1.71172C12.0991 1.71172 11.1399 1.66159 10.3229 1.93374C9.08672 2.34198 3.75829 7.69203 2.991 8.93822C2.13845 10.3277 2.93416 12.7055 2.57893 14.2525C2.41553 14.9687 1.5985 14.8469 1.57008 16.2005C1.52745 18.4064 4.19877 18.0627 5.71915 18.299C6.89851 12.1038 15.0119 11.2301 16.6815 17.6329C16.8023 18.0985 16.5039 18.8218 17.1504 18.8935L40.354 18.872C40.7092 18.7574 40.6666 17.5112 40.8442 16.9382C42.6629 11.1441 51.0819 12.5121 51.5081 18.5139C52.3394 18.7001 54.9539 18.6499 55.2238 17.7332C55.2594 17.6115 55.3943 15.8568 55.3801 15.7063C55.3517 15.427 55.0533 15.1692 54.9965 14.9042C54.7052 13.479 55.0533 11.4879 53.4406 10.9293C52.0978 10.4637 49.2702 10.1343 47.7427 9.9051C36.6383 8.21485 24.7736 9.66159 13.52 9.18889C12.6745 9.18173 11.758 8.67323 11.2962 7.95702C10.0885 6.05908 12.2412 3.49507 12.9232 1.71888L12.9445 1.71172ZM23.0969 1.71172H14.6638C14.4436 3.02954 11.9641 5.9803 12.7882 7.16203C12.8877 7.31244 13.4205 7.60608 13.5484 7.60608H23.0969V1.71172ZM31.0967 1.71172C29.2424 1.39659 26.5924 1.94091 24.6457 1.71172V7.60608H39.6151C39.7074 7.20501 39.5369 7.3196 39.3948 7.21217C37.9171 6.05192 32.5887 1.96239 31.0967 1.71172ZM15.1185 18.5927C15.1185 16.5013 13.4347 14.8039 11.3602 14.8039C9.28565 14.8039 7.60186 16.5013 7.60186 18.5927C7.60186 20.684 9.28565 22.3814 11.3602 22.3814C13.4347 22.3814 15.1185 20.684 15.1185 18.5927ZM49.7746 18.6141C49.7746 16.5157 48.0908 14.8183 46.0092 14.8183C43.9276 14.8183 42.2438 16.5157 42.2438 18.6141C42.2438 20.7126 43.9276 22.41 46.0092 22.41C48.0908 22.41 49.7746 20.7126 49.7746 18.6141Z" fill="black"/>
</g>
<defs>
<clipPath id="clip0_35_1850">
<rect width="57" height="24" fill="white"/>
</clipPath>
</defs>
</svg>
