<svg width="17" height="14" viewBox="0 0 17 14" fill="none" xmlns="http://www.w3.org/2000/svg">
<path d="M0.65564 0.78125L1.35876 0.078125L14.0931 12.8047L13.3822 13.5156L9.81189 9.94531C9.53064 10.1276 9.2572 10.2656 8.99158 10.3594C8.72595 10.4531 8.42126 10.5 8.07751 10.5C7.66085 10.5 7.27022 10.4219 6.90564 10.2656C6.54106 10.1094 6.22335 9.89583 5.95251 9.625C5.68168 9.35417 5.46814 9.03646 5.31189 8.67188C5.15564 8.30729 5.07751 7.91667 5.07751 7.5C5.07751 7.16146 5.12439 6.85938 5.21814 6.59375C5.31189 6.32812 5.44991 6.05208 5.6322 5.76562L3.1322 3.26562C2.48116 3.8125 1.97595 4.4401 1.61658 5.14844C1.2572 5.85677 1.07751 6.64062 1.07751 7.5H0.0775146C0.0775146 7.02604 0.132202 6.5599 0.241577 6.10156C0.350952 5.64323 0.507202 5.20052 0.710327 4.77344C0.913452 4.34635 1.15824 3.94792 1.4447 3.57812C1.73116 3.20833 2.05929 2.86979 2.42908 2.5625L0.65564 0.78125ZM6.07751 7.5C6.07751 7.77604 6.1296 8.03385 6.23376 8.27344C6.33793 8.51302 6.48116 8.72656 6.66345 8.91406C6.84574 9.10156 7.05668 9.24479 7.29626 9.34375C7.53585 9.44271 7.79626 9.49479 8.07751 9.5C8.26501 9.5 8.43949 9.47656 8.60095 9.42969C8.76241 9.38281 8.92387 9.3125 9.08533 9.21875L6.35876 6.49219C6.27022 6.65365 6.20251 6.8151 6.15564 6.97656C6.10876 7.13802 6.08272 7.3125 6.07751 7.5ZM8.64001 5.58594L7.60095 4.54688L7.83533 4.51562C7.91345 4.50521 7.99418 4.5 8.07751 4.5C8.48897 4.5 8.87699 4.57812 9.24158 4.73438C9.60616 4.89062 9.92387 5.10417 10.1947 5.375C10.4655 5.64583 10.6817 5.96615 10.8431 6.33594C11.0046 6.70573 11.0827 7.09375 11.0775 7.5C11.0775 7.57812 11.0723 7.65625 11.0619 7.73438C11.0515 7.8125 11.0411 7.89323 11.0306 7.97656L9.99158 6.9375C9.77283 6.25521 9.32231 5.80469 8.64001 5.58594ZM16.0775 7.5H15.0775C15.0775 6.88542 14.9838 6.3099 14.7963 5.77344C14.6088 5.23698 14.351 4.7474 14.0228 4.30469C13.6947 3.86198 13.3041 3.46615 12.851 3.11719C12.3978 2.76823 11.9161 2.47396 11.4056 2.23438C10.8952 1.99479 10.3536 1.8125 9.78064 1.6875C9.20772 1.5625 8.64001 1.5 8.07751 1.5C7.5671 1.5 7.0671 1.54948 6.57751 1.64844C6.08793 1.7474 5.60616 1.89323 5.1322 2.08594L4.36658 1.32031C4.97074 1.04427 5.57231 0.838542 6.17126 0.703125C6.77022 0.567708 7.40564 0.5 8.07751 0.5C8.82751 0.5 9.5697 0.591146 10.3041 0.773438C11.0385 0.955729 11.7286 1.22917 12.3744 1.59375C13.0202 1.95833 13.6088 2.40104 14.14 2.92188C14.6713 3.44271 15.1036 4.05208 15.4369 4.75C15.6452 5.17708 15.8041 5.6224 15.9135 6.08594C16.0228 6.54948 16.0775 7.02083 16.0775 7.5Z" fill="#1E1E1E"/>
</svg>
