<svg width="11" height="12" viewBox="0 0 11 12" fill="none" xmlns="http://www.w3.org/2000/svg">
<g clip-path="url(#clip0_73_5468)">
<path d="M4.63606 8.13058H5.47786V5.60518H4.63606V8.13058ZM5.05696 4.76338C5.17622 4.76338 5.27625 4.72297 5.35706 4.64216C5.43787 4.56134 5.47814 4.46145 5.47786 4.34248C5.47758 4.2235 5.43717 4.12361 5.35664 4.0428C5.27611 3.96198 5.17622 3.92158 5.05696 3.92158C4.93771 3.92158 4.83781 3.96198 4.75728 4.0428C4.67675 4.12361 4.63634 4.2235 4.63606 4.34248C4.63578 4.46145 4.67619 4.56149 4.75728 4.64258C4.83837 4.72367 4.93827 4.76394 5.05696 4.76338ZM5.05696 10.2351C4.47472 10.2351 3.92755 10.1245 3.41545 9.90341C2.90336 9.68229 2.4579 9.38247 2.07909 9.00394C1.70028 8.62541 1.40046 8.17996 1.17963 7.66759C0.958799 7.15521 0.848243 6.60804 0.847962 6.02608C0.847681 5.44411 0.958238 4.89694 1.17963 4.38457C1.40102 3.87219 1.70085 3.42674 2.07909 3.04821C2.45734 2.66968 2.9028 2.36986 3.41545 2.14875C3.92811 1.92763 4.47528 1.81708 5.05696 1.81708C5.63864 1.81708 6.18581 1.92763 6.69847 2.14875C7.21113 2.36986 7.65658 2.66968 8.03483 3.04821C8.41308 3.42674 8.71304 3.87219 8.93471 4.38457C9.15638 4.89694 9.2668 5.44411 9.26596 6.02608C9.26512 6.60804 9.15456 7.15521 8.93429 7.66759C8.71402 8.17996 8.4142 8.62541 8.03483 9.00394C7.65546 9.38247 7.21 9.68243 6.69847 9.90383C6.18694 10.1252 5.63977 10.2356 5.05696 10.2351ZM5.05696 9.39327C5.99697 9.39327 6.79317 9.06708 7.44557 8.41468C8.09796 7.76229 8.42416 6.96609 8.42416 6.02608C8.42416 5.08607 8.09796 4.28986 7.44557 3.63747C6.79317 2.98507 5.99697 2.65888 5.05696 2.65888C4.11695 2.65888 3.32075 2.98507 2.66835 3.63747C2.01596 4.28986 1.68976 5.08607 1.68976 6.02608C1.68976 6.96609 2.01596 7.76229 2.66835 8.41468C3.32075 9.06708 4.11695 9.39327 5.05696 9.39327Z" fill="black"/>
</g>
<defs>
<clipPath id="clip0_73_5468">
<rect width="10.1016" height="10.1016" fill="white" transform="translate(0.00604248 0.975342)"/>
</clipPath>
</defs>
</svg>
