<svg width="26" height="25" viewBox="0 0 26 25" fill="none" xmlns="http://www.w3.org/2000/svg">
<path d="M13.0585 8.21334C13.0585 8.21334 13.0585 8.21334 12.2908 7.20318C11.4018 6.0314 10.0886 5.18286 8.51276 5.18286C5.99746 5.18286 3.96704 7.21328 3.96704 9.72858C3.96704 10.668 4.24989 11.5368 4.73476 12.254C5.55299 13.4763 13.0585 21.3454 13.0585 21.3454M13.0585 8.21334C13.0585 8.21334 13.0585 8.21334 13.8262 7.20318C14.7151 6.0314 16.0283 5.18286 17.6042 5.18286C20.1195 5.18286 22.1499 7.21328 22.1499 9.72858C22.1499 10.668 21.8671 11.5368 21.3822 12.254C20.564 13.4763 13.0585 21.3454 13.0585 21.3454" stroke="black" stroke-width="2.02032" stroke-linecap="round" stroke-linejoin="round"/>
</svg>
