<svg xmlns="http://www.w3.org/2000/svg" viewBox="0 0 260.90067 60"><path d="M52.29533,77.77577a2.63456,2.63456,0,1,1,2.63456-2.63456A2.63385,2.63385,0,0,1,52.29533,77.77577Zm0-4.88335a2.249,2.249,0,1,0,2.22,2.24879A2.23333,2.23333,0,0,0,52.29533,72.89242Zm.64069,3.6898-.66273-1.179h-.43661v1.179h-.40034V73.69309h.98272a.88267.88267,0,0,1,.90947.8661.80039.80039,0,0,1-.61864.79321l.69188,1.22982Zm-.56034-2.53252h-.539v1.01152h.539a.5056.5056,0,0,0,.5454-.502A.51108.51108,0,0,0,52.37568,74.0497Z" transform="translate(-15.39748 -17.89808)" fill="#1e3f74"/><polygon points="31.143 57.886 31.125 1.042 9.371 1.042 9.367 31.631 9.367 57.887 20.258 49.527 31.143 57.886" fill="#1e3f74"/><path d="M53.98678,45.67057l2.75816-1.76377-2.75716-1.7653,2.36112-2.26786-3.04851-1.19271,1.87236-2.68634-3.2224-.57628L53.2633,32.42l-3.27282.06445L50.6932,29.287l-3.12553.6851-.0036-12.074H23.72627L23.7255,29.77986l-2.26893-.49926.70081,3.19687L18.884,32.41179l1.31194,2.9994-3.22308.575L18.84433,38.672,15.795,39.86368l2.36135,2.26993-2.75884,1.76323,2.75685,1.76576L15.7936,47.93054l3.04805,1.1937-1.87182,2.68428,3.22116.57658-1.31172,2.99855,3.27244-.06391-.70318,3.19687,2.27521-.49888-.0013,19.87905,11.9335-9.15918,11.926,9.16048-.006-20.05783,3.10982.68379-.702-3.19764,3.27374.06445-1.31164-2.99862,3.22262-.57429-1.87106-2.68627L56.34691,47.94ZM46.52218,18.94l.0026,8.22817-1.96362.85874-.57352-3.22262-2.68635,1.87129-1.19171-3.0489-2.26893,2.35989L36.077,23.22886,34.31066,25.986,32.0428,23.62444l-1.19324,3.04912-2.6862-1.87381-.57528,3.2217-2.82091-1.233.001-7.84845ZM35.65594,67.42512,24.76433,75.785V61.00877l2.81525-1.231.57535,3.22293,2.68574-1.87213,1.1924,3.04943,2.2687-2.35989L36.066,64.57654l1.76576-2.75669L40.0987,64.181l1.1924-3.0489,2.68711,1.87159.57505-3.22292,1.982.868L46.54,75.7838Z" transform="translate(-15.39748 -17.89808)" fill="#f1bb25"/><path d="M36.06205,26.73062A17.18512,17.18512,0,1,0,53.26649,43.92613,17.19439,17.19439,0,0,0,36.06205,26.73062Z" transform="translate(-15.39748 -17.89808)" fill="#1e3f74"/><path d="M26.79736,39.87752a10.10334,10.10334,0,0,1,9.27435-6.08277h.02575a10.10359,10.10359,0,0,1,9.27313,6.08277l.1643.37765h2.00225l-.347-.86258a11.97457,11.97457,0,0,0-22.21235,0l-.34822.86258h2.00348Z" transform="translate(-15.39748 -17.89808)" fill="#fff"/><path d="M45.34607,48.02263a10.12257,10.12257,0,0,1-9.24983,6.02023h-.00491a10.12233,10.12233,0,0,1-9.24615-6.02023l-.16553-.374H24.67l.35926.86809a11.979,11.979,0,0,0,22.13265,0l.36048-.86809H45.51159Z" transform="translate(-15.39748 -17.89808)" fill="#fff"/><path d="M70.27081,39.7401l-3.25-5.75488-1.63428,1.9541V39.7401H62.91778v-12.646h2.46875V32.6l4.458-5.50586h3.002L68.6546,32.12047l4.49365,7.61963Z" transform="translate(-15.39748 -17.89808)" fill="#231f20"/><path d="M75.91583,35.83288a1.89325,1.89325,0,0,0,2.02441,2.06,2.61587,2.61587,0,0,0,2.09619-.87011l1.40283,1.36767a4.35133,4.35133,0,0,1-3.5166,1.45606c-2.18457,0-4.28027-.99463-4.28027-4.74219,0-3.01953,1.63379-4.72461,4.03174-4.72461,2.57519,0,4.03174,1.84717,4.03174,4.47608v.97705Zm3.30322-2.57569a1.72432,1.72432,0,0,0-3.09033,0,2.26973,2.26973,0,0,0-.21289.99463h3.5166A2.2702,2.2702,0,0,0,79.21905,33.25719Z" transform="translate(-15.39748 -17.89808)" fill="#231f20"/><path d="M86.26788,39.7401a2.51479,2.51479,0,0,1-2.7002-2.64648V27.09411h2.30908v9.85742c0,.55078.231.835.8169.835h.88818V39.7401Z" transform="translate(-15.39748 -17.89808)" fill="#231f20"/><path d="M91.86065,39.7401a2.51425,2.51425,0,0,1-2.69922-2.64648V27.09411H91.47v9.85742c0,.55078.231.835.81738.835h.88769V39.7401Z" transform="translate(-15.39748 -17.89808)" fill="#231f20"/><path d="M96.47735,35.83288a1.89325,1.89325,0,0,0,2.02441,2.06,2.61587,2.61587,0,0,0,2.09619-.87011l1.40284,1.36767a4.35136,4.35136,0,0,1-3.5166,1.45606c-2.18457,0-4.28028-.99463-4.28028-4.74219,0-3.01953,1.63379-4.72461,4.03174-4.72461,2.5752,0,4.03174,1.84717,4.03174,4.47608v.97705Zm3.30322-2.57569a1.72432,1.72432,0,0,0-3.09033,0,2.26987,2.26987,0,0,0-.21289.99463H99.994A2.27006,2.27006,0,0,0,99.78057,33.25719Z" transform="translate(-15.39748 -17.89808)" fill="#231f20"/><path d="M107.48614,41.23229a3.292,3.292,0,0,1-.69287,1.18994,2.67462,2.67462,0,0,1-1.98926.71045h-.90576V41.05456h.5332a.99847.99847,0,0,0,1.1543-.835l.39062-1.13671-3.16162-8.5962h2.4336l1.918,5.71875,1.84717-5.71875h2.4336Z" transform="translate(-15.39748 -17.89808)" fill="#231f20"/><path d="M122.04669,39.7401h-5.293v-12.646h5.07959c2.46875,0,3.9082,1.38525,3.9082,3.55224a2.92354,2.92354,0,0,1-1.56348,2.61084,2.93914,2.93914,0,0,1,1.74121,2.8418C125.91924,38.46129,124.30206,39.7401,122.04669,39.7401Zm-.4087-10.44336h-2.41552v2.9126H121.638a1.466,1.466,0,1,0,0-2.9126Zm.16016,5.13282h-2.57568V37.538h2.57568a1.55706,1.55706,0,1,0,0-3.10839Z" transform="translate(-15.39748 -17.89808)" fill="#231f20"/><path d="M130.69268,39.7401a2.51425,2.51425,0,0,1-2.69922-2.64648V27.09411h2.3086v9.85742c0,.55078.23144.835.81738.835h.88769V39.7401Z" transform="translate(-15.39748 -17.89808)" fill="#231f20"/><path d="M139.00323,39.7401v-.85254a3.16413,3.16413,0,0,1-2.3086.959,3.00656,3.00656,0,0,1-2.18457-.8169,3.42863,3.42863,0,0,1-.9414-2.62841V30.48668h2.30859v5.59473a1.54333,1.54333,0,1,0,3.07324,0V30.48668h2.3086V39.7401Z" transform="translate(-15.39748 -17.89808)" fill="#231f20"/><path d="M145.4837,35.83288a1.893,1.893,0,0,0,2.02441,2.06,2.61415,2.61415,0,0,0,2.0957-.87011l1.40332,1.36767a4.35067,4.35067,0,0,1-3.5166,1.45606c-2.18457,0-4.28027-.99463-4.28027-4.74219,0-3.01953,1.63379-4.72461,4.03125-4.72461,2.57617,0,4.03223,1.84717,4.03223,4.47608v.97705Zm3.30371-2.57569a1.72472,1.72472,0,0,0-3.09082,0,2.263,2.263,0,0,0-.21289.99463h3.5166A2.27678,2.27678,0,0,0,148.78741,33.25719Z" transform="translate(-15.39748 -17.89808)" fill="#231f20"/><path d="M162.636,39.7401h-5.292v-12.646h5.0791c2.46875,0,3.90723,1.38525,3.90723,3.55224a2.923,2.923,0,0,1-1.5625,2.61084,2.93858,2.93858,0,0,1,1.74023,2.8418C166.50811,38.46129,164.8919,39.7401,162.636,39.7401Zm-.4082-10.44336h-2.415v2.9126h2.415a1.46594,1.46594,0,1,0,0-2.9126Zm.16015,5.13282H159.8128V37.538H162.388a1.55706,1.55706,0,1,0,0-3.10839Z" transform="translate(-15.39748 -17.89808)" fill="#231f20"/><path d="M175.06573,38.70983a3.86528,3.86528,0,0,1-2.87695,1.13672,3.82007,3.82007,0,0,1-2.85938-1.13672c-.835-.8877-1.04785-1.936-1.04785-3.60547s.21289-2.69971,1.04785-3.58789a4.1868,4.1868,0,0,1,5.73633,0c.835.88818,1.04785,1.91846,1.04785,3.58789S175.91827,37.83971,175.06573,38.70983Zm-1.79395-5.84326a1.45827,1.45827,0,0,0-1.083-.40869,1.443,1.443,0,0,0-1.06543.40869,3.12427,3.12427,0,0,0-.53321,2.23779,3.14988,3.14988,0,0,0,.53321,2.25586,1.44458,1.44458,0,0,0,1.06543.4082,1.4599,1.4599,0,0,0,1.083-.4082,3.14988,3.14988,0,0,0,.53321-2.25586A3.12427,3.12427,0,0,0,173.27178,32.86657Z" transform="translate(-15.39748 -17.89808)" fill="#231f20"/><path d="M184.5296,38.70983a3.86529,3.86529,0,0,1-2.877,1.13672,3.82,3.82,0,0,1-2.85937-1.13672c-.835-.8877-1.04785-1.936-1.04785-3.60547s.21289-2.69971,1.04785-3.58789a4.1868,4.1868,0,0,1,5.73633,0c.835.88818,1.04785,1.91846,1.04785,3.58789S185.38213,37.83971,184.5296,38.70983Zm-1.79395-5.84326a1.45827,1.45827,0,0,0-1.083-.40869,1.443,1.443,0,0,0-1.06543.40869,3.11959,3.11959,0,0,0-.5332,2.23779,3.14518,3.14518,0,0,0,.5332,2.25586,1.44461,1.44461,0,0,0,1.06543.4082,1.4599,1.4599,0,0,0,1.083-.4082,3.14993,3.14993,0,0,0,.5332-2.25586A3.12432,3.12432,0,0,0,182.73565,32.86657Z" transform="translate(-15.39748 -17.89808)" fill="#231f20"/><path d="M193.1585,39.7401l-2.27344-3.854-.97656,1.10107V39.7401h-2.30859v-12.646h2.30859V34.2694l3.07324-3.78272h2.78809l-3.30371,3.7295,3.55273,5.52392Z" transform="translate(-15.39748 -17.89808)" fill="#231f20"/><path d="M63.04717,63.34655V44.3778h4.6626V63.34655Z" transform="translate(-15.39748 -17.89808)" fill="#231f20"/><path d="M78.5169,63.34655v-8.5791a1.76975,1.76975,0,1,0-3.5166,0v8.5791H70.63116V49.01305h4.26269v1.17237a4.85633,4.85633,0,0,1,3.33008-1.332A4.42158,4.42158,0,0,1,81.44756,50.079a5.25915,5.25915,0,0,1,1.439,4.10254v9.165Z" transform="translate(-15.39748 -17.89808)" fill="#231f20"/><path d="M90.63409,63.5067c-2.15772,0-4.2627-.10644-6.23389-2.07812l2.82373-2.82422a4.66817,4.66817,0,0,0,3.49024,1.19922c.63916,0,1.86474-.18652,1.86474-.93262,0-.39941-.18652-.82617-1.03906-.90625l-2.21094-.21289c-2.478-.24023-4.15625-1.3584-4.15625-4.15625,0-3.17041,2.85059-4.74219,5.70117-4.74219,2.34473,0,4.23633.3462,5.64844,1.7583L93.83135,53.3026a4.2839,4.2839,0,0,0-3.03711-.85254c-1.06591,0-1.41211.50586-1.41211.82618,0,.42578.2129.71875.93262.79882l2.21094.21289c3.01074.293,4.31592,2.07813,4.31592,4.37012C96.84161,62.04088,93.96465,63.5067,90.63409,63.5067Z" transform="translate(-15.39748 -17.89808)" fill="#231f20"/><path d="M103.75372,63.34655a4.12808,4.12808,0,0,1-4.44922-4.23633V52.92956H97.99883V49.57262H99.3045V45.47008h4.36914v4.10254h2.26465v3.35694h-2.26465v5.86132a.78761.78761,0,0,0,.8789.87891h1.38575v3.67676Z" transform="translate(-15.39748 -17.89808)" fill="#231f20"/><path d="M115.31182,63.34655V62.17467a3.95385,3.95385,0,0,1-3.19726,1.30469A4.77555,4.77555,0,0,1,108.678,62.201a4.67188,4.67188,0,0,1-1.25244-3.35742c0-2.15723,1.46533-4.15528,4.95557-4.15528h2.82373v-.373c0-1.30567-.63916-1.78516-2.15772-1.78516a2.867,2.867,0,0,0-2.26464,1.0127l-2.71729-2.71778a6.324,6.324,0,0,1,5.19482-1.97168c4.103,0,6.31446,1.70508,6.31446,5.19532v9.29785Zm-.10693-5.75488h-2.07764c-1.01269,0-1.51855.45312-1.51855,1.17285,0,.666.50586,1.17187,1.57177,1.17187a2.04839,2.04839,0,0,0,1.57178-.50586,1.77,1.77,0,0,0,.45264-1.46582Z" transform="translate(-15.39748 -17.89808)" fill="#231f20"/><path d="M130.06963,63.34655v-8.5791a1.76975,1.76975,0,1,0-3.5166,0v8.5791H122.1834V49.01305h4.26319v1.17237a4.8563,4.8563,0,0,1,3.33006-1.332A4.42242,4.42242,0,0,1,133.0003,50.079a5.25877,5.25877,0,0,1,1.43848,4.10254v9.165Z" transform="translate(-15.39748 -17.89808)" fill="#231f20"/><path d="M141.888,63.34655a4.12835,4.12835,0,0,1-4.44921-4.23633V52.92956h-1.30469V49.57262h1.30469V45.47008h4.36914v4.10254h2.26464v3.35694h-2.26464v5.86132a.78832.78832,0,0,0,.87988.87891h1.38476v3.67676Z" transform="translate(-15.39748 -17.89808)" fill="#231f20"/><path d="M158.77665,63.5067a6.92175,6.92175,0,0,1-5.27537-2.07812c-1.94434-1.94531-1.94434-4.36914-1.94434-7.56641s0-5.62158,1.94434-7.5664a6.92,6.92,0,0,1,5.27537-2.07813,6.838,6.838,0,0,1,7.167,6.18115h-4.74219a2.35065,2.35065,0,0,0-2.42482-2.0249,2.26149,2.26149,0,0,0-1.83787.79932c-.42676.55957-.71973,1.22558-.71973,4.689,0,3.46289.293,4.12891.71973,4.68848a2.26175,2.26175,0,0,0,1.83787.7998,2.35063,2.35063,0,0,0,2.42482-2.02539h4.74219A6.83805,6.83805,0,0,1,158.77665,63.5067Z" transform="translate(-15.39748 -17.89808)" fill="#231f20"/><path d="M175.11651,63.34655V62.17467a3.95321,3.95321,0,0,1-3.19727,1.30469,4.77554,4.77554,0,0,1-3.43652-1.27832,4.67155,4.67155,0,0,1-1.25195-3.35742c0-2.15723,1.46484-4.15528,4.95508-4.15528h2.82421v-.373c0-1.30567-.63964-1.78516-2.1582-1.78516a2.867,2.867,0,0,0-2.26465,1.0127l-2.71777-2.71778a6.32627,6.32627,0,0,1,5.19531-1.97168c4.10254,0,6.31445,1.70508,6.31445,5.19532v9.29785Zm-.10645-5.75488h-2.07812c-1.0127,0-1.51856.45312-1.51856,1.17285,0,.666.50586,1.17187,1.57129,1.17187a2.0489,2.0489,0,0,0,1.57227-.50586,1.76843,1.76843,0,0,0,.45312-1.46582Z" transform="translate(-15.39748 -17.89808)" fill="#231f20"/><path d="M187.07452,63.5067c-2.15821,0-4.2627-.10644-6.23438-2.07812l2.82422-2.82422a4.66615,4.66615,0,0,0,3.48926,1.19922c.63965,0,1.86523-.18652,1.86523-.93262,0-.39941-.18652-.82617-1.03906-.90625l-2.21094-.21289c-2.47754-.24023-4.15625-1.3584-4.15625-4.15625,0-3.17041,2.85059-4.74219,5.70118-4.74219,2.34472,0,4.23632.3462,5.64843,1.7583l-2.6914,2.69092a4.28253,4.28253,0,0,0-3.03711-.85254c-1.06543,0-1.41211.50586-1.41211.82618,0,.42578.21386.71875.93261.79882l2.21192.21289c3.00976.293,4.31543,2.07813,4.31543,4.37012C193.28155,62.04088,190.4046,63.5067,187.07452,63.5067Z" transform="translate(-15.39748 -17.89808)" fill="#231f20"/><path d="M203.06573,63.34655v-8.5791a1.76975,1.76975,0,1,0-3.5166,0v8.5791H195.179V44.3778h4.37012v5.80762a4.46987,4.46987,0,0,1,3.22363-1.332,4.424,4.424,0,0,1,3.22363,1.22559,5.25873,5.25873,0,0,1,1.43848,4.10254v9.165Z" transform="translate(-15.39748 -17.89808)" fill="#231f20"/><path d="M227.86553,61.42858a7.735,7.735,0,0,1-10.55078,0c-1.94433-1.94531-1.94433-4.36914-1.94433-7.56641s0-5.62158,1.94433-7.5664a7.73493,7.73493,0,0,1,10.55078,0c1.94434,1.94482,1.94434,4.36914,1.94434,7.5664S229.80987,59.48327,227.86553,61.42858Zm-3.41015-12.229a2.51963,2.51963,0,0,0-3.73047,0c-.42578.55957-.69238,1.19921-.69238,4.66259,0,3.46289.2666,4.07617.69238,4.63575a2.46672,2.46672,0,0,0,3.73047,0c.42578-.55958.69238-1.17286.69238-4.63575C225.14776,50.39879,224.88116,49.75915,224.45538,49.19958Z" transform="translate(-15.39748 -17.89808)" fill="#231f20"/><path d="M237.24053,52.92956v10.417h-4.36914v-10.417h-1.30566V49.57262h1.30566v-1.252a4.12836,4.12836,0,0,1,4.44922-4.23633H239.639V47.7611h-1.51855a.78826.78826,0,0,0-.87989.87939v.93213H239.639v3.35694Z" transform="translate(-15.39748 -17.89808)" fill="#231f20"/><path d="M246.65655,52.92956v10.417h-4.36914v-10.417h-1.30567V49.57262h1.30567v-1.252a4.12835,4.12835,0,0,1,4.44922-4.23633H249.055V47.7611h-1.51856a.78825.78825,0,0,0-.87988.87939v.93213H249.055v3.35694Z" transform="translate(-15.39748 -17.89808)" fill="#231f20"/><path d="M254.58721,57.59167A2.30051,2.30051,0,0,0,257.11846,59.83a3.56658,3.56658,0,0,0,2.957-1.19922l2.61036,2.61133a6.96732,6.96732,0,0,1-5.56739,2.26464c-3.1709,0-6.82031-1.1455-6.82031-7.32714,0-4.68848,2.66406-7.32618,6.41992-7.32618,4.15625,0,6.44824,2.98438,6.44824,6.92676v1.81153Zm4.02246-4.02247a2.15736,2.15736,0,0,0-3.78222,0,2.57278,2.57278,0,0,0-.24024,1.11914h4.2627A2.57278,2.57278,0,0,0,258.60967,53.5692Z" transform="translate(-15.39748 -17.89808)" fill="#231f20"/><path d="M272.99444,53.54284a2.02669,2.02669,0,0,0-1.57227-.7461,1.75889,1.75889,0,0,0-1.75781,1.97071v8.5791h-4.37012V49.01305h4.2627v1.17237a4.96987,4.96987,0,0,1,3.38379-1.332,4.25268,4.25268,0,0,1,3.35742,1.332Z" transform="translate(-15.39748 -17.89808)" fill="#231f20"/></svg>