<svg width="86" height="57" viewBox="0 0 86 57" fill="none" xmlns="http://www.w3.org/2000/svg">
<g clip-path="url(#clip0_27_12253)">
<path d="M85.4917 0H-0.00830078V57H85.4917V0Z" fill="white"/>
<path d="M4.04184 9.21685C4.04184 8.4217 4.42374 8.03695 5.07069 8.03695C5.22391 8.02072 5.3786 8.04825 5.51681 8.11635C5.65502 8.18444 5.7711 8.29032 5.85159 8.4217C6.01992 8.77692 6.09356 9.16963 6.06534 9.5617H8.54199V9.2995C8.54199 7.61515 7.61859 6.31555 5.04504 6.31555C2.39454 6.31555 1.45974 7.7833 1.45974 9.51895C1.45974 13.6116 6.16509 12.2949 6.16509 14.649C6.16509 15.276 5.88009 15.9514 4.99944 15.9514C4.11879 15.9514 3.87939 15.3244 3.87939 14.4951V14.1246H1.41699V14.8371C1.41699 17.1171 3.14979 17.6871 5.01939 17.6871C7.37919 17.6871 8.75574 16.6896 8.75574 14.2101C8.74434 10.3569 4.04184 11.4969 4.04184 9.21685Z" fill="#221F1F"/>
<path d="M14.5896 10.6163H12.5347V6.52936H9.96973V17.4648H12.5347V12.788H14.5896V17.4648H17.1546V6.52936H14.5896V10.6163Z" fill="#221F1F"/>
<path d="M22.3727 6.31555C18.9869 6.31555 18.5166 8.5186 18.5166 11.9985C18.5166 15.4783 18.9869 17.67 22.3727 17.67C26.0207 17.67 26.2116 15.0309 26.2116 11.9985C26.2116 8.96605 26.0207 6.31555 22.3727 6.31555ZM22.3556 15.96C21.3467 15.96 21.1928 14.9938 21.1928 11.9928C21.1928 8.9917 21.3125 8.0284 22.3556 8.0284C23.3987 8.0284 23.5526 8.99455 23.5526 11.9985C23.5526 15.0024 23.3987 15.96 22.3556 15.96Z" fill="#221F1F"/>
<path d="M35.0268 14.3127H34.9955L33.77 6.52936H31.3788L30.2388 14.3127H30.2103L29.2442 6.52936H26.6792L28.62 17.4648H31.47L32.5274 9.69856H32.5587L33.676 17.4648H36.5288L38.4269 6.52936H35.9445L35.0268 14.3127Z" fill="#221F1F"/>
<path d="M46.895 15.9144L43.8797 6.38116H42.5801V17.6159H43.5234V8.26501L46.4361 17.6301H47.3025L50.2095 8.25646V17.6159H51.1529V6.38116H49.8333L46.895 15.9144Z" fill="#221F1F"/>
<path d="M53.5552 12.198H57.8302V11.3288H53.5552V7.25041H58.138V6.38116H52.6147V17.6045H58.2748V16.7352H53.5552V12.198Z" fill="#221F1F"/>
<path d="M61.3438 7.26183H64.2707V17.6159H65.1969V7.26183H68.1096V6.39258H61.3438V7.26183Z" fill="#221F1F"/>
<path d="M74.2118 11.1749H69.7174V6.38116H68.7769V17.6159H69.7174V12.0555H74.2118V17.6159H75.1552V6.38116H74.2118V11.1749Z" fill="#221F1F"/>
<path d="M77.0527 16.7352V12.198H81.3306V11.3288H77.0527V7.25041H81.6355V6.38116H76.1094V17.6045H81.7723V16.7352H77.0527Z" fill="#221F1F"/>
<path d="M85.4918 20.3804C85.4958 20.5384 85.4677 20.6955 85.4095 20.8425C85.3512 20.9894 85.2639 21.123 85.1527 21.2354C85.0472 21.3467 84.9198 21.435 84.7786 21.4949C84.6373 21.5547 84.4853 21.5847 84.3319 21.5831C84.1769 21.5831 84.0234 21.5523 83.8803 21.4926C83.7373 21.4328 83.6075 21.3453 83.4986 21.235C83.3896 21.1247 83.3036 20.9939 83.2456 20.8501C83.1876 20.7063 83.1587 20.5525 83.1605 20.3975C83.1565 20.2394 83.1844 20.0822 83.2427 19.9353C83.301 19.7883 83.3884 19.6547 83.4997 19.5425C83.6075 19.431 83.7369 19.3426 83.8799 19.2828C84.023 19.223 84.1768 19.1931 84.3319 19.1948C84.4853 19.1931 84.6373 19.2231 84.7786 19.283C84.9198 19.3428 85.0472 19.4311 85.1527 19.5425C85.2617 19.6529 85.3477 19.7838 85.4059 19.9276C85.4641 20.0714 85.4933 20.2252 85.4918 20.3804ZM85.3066 20.3804C85.3091 20.1129 85.2068 19.8551 85.0216 19.6622C84.9363 19.5691 84.8329 19.4943 84.7178 19.4423C84.6026 19.3904 84.4781 19.3624 84.3518 19.3601C84.2183 19.3579 84.0858 19.384 83.963 19.4365C83.8403 19.489 83.73 19.5669 83.6393 19.665C83.5464 19.7609 83.4734 19.8742 83.4245 19.9985C83.3756 20.1227 83.3517 20.2554 83.3543 20.3889C83.3513 20.5212 83.3749 20.6527 83.4239 20.7757C83.4729 20.8986 83.5462 21.0103 83.6393 21.1043C83.8129 21.2875 84.052 21.3943 84.3043 21.4013C84.5565 21.4082 84.8012 21.3147 84.9845 21.1413L85.0216 21.1043C85.1153 21.009 85.1888 20.8957 85.2378 20.7713C85.2868 20.647 85.3102 20.514 85.3066 20.3804ZM84.9817 20.0697C84.9844 20.129 84.9735 20.188 84.9497 20.2424C84.926 20.2967 84.8902 20.3449 84.8449 20.3832C84.757 20.459 84.6446 20.5005 84.5285 20.5001L84.956 21.0701H84.691L84.2663 20.5001H84.0241V21.0701H83.8075V19.6451H84.4972C84.6265 19.6371 84.754 19.6789 84.8534 19.7619C84.8965 19.8003 84.9304 19.8479 84.9526 19.9012C84.9748 19.9545 84.9848 20.0121 84.9817 20.0697ZM84.7622 20.0697C84.7622 19.9272 84.6511 19.856 84.4373 19.856H84.0241V20.312H84.4516C84.6625 20.312 84.7622 20.235 84.7622 20.0697Z" fill="#221F1F"/>
<path d="M81.1257 19.873H1.65061C1.41196 19.8692 1.1815 19.96 1.00955 20.1255C0.837604 20.2911 0.73815 20.5179 0.73291 20.7565V33.6642C0.734767 33.7828 0.759978 33.9 0.807105 34.0089C0.854231 34.1178 0.922349 34.2163 1.00757 34.2989C1.09279 34.3815 1.19344 34.4464 1.30377 34.4901C1.41411 34.5338 1.53196 34.5553 1.65061 34.5534H81.1257C81.2446 34.5557 81.3628 34.5344 81.4734 34.4909C81.5841 34.4474 81.6851 34.3825 81.7706 34.2999C81.8561 34.2173 81.9245 34.1186 81.9718 34.0095C82.0191 33.9004 82.0444 33.7831 82.0463 33.6642V20.7679C82.0455 20.6492 82.0213 20.5318 81.975 20.4224C81.9287 20.313 81.8612 20.2139 81.7765 20.1308C81.6917 20.0476 81.5913 19.982 81.4811 19.9378C81.3709 19.8935 81.253 19.8715 81.1343 19.873H81.1257Z" fill="white"/>
<path d="M81.0802 35.34H1.60227C1.36287 35.3369 1.13199 35.4287 0.960046 35.5953C0.788103 35.7619 0.689068 35.9898 0.68457 36.2292V49.1283C0.686427 49.2469 0.711638 49.364 0.758765 49.4729C0.805891 49.5819 0.874009 49.6804 0.959229 49.763C1.04445 49.8455 1.1451 49.9105 1.25543 49.9542C1.36577 49.9979 1.48362 50.0194 1.60227 50.0175H81.0802C81.199 50.0197 81.317 49.9985 81.4275 49.955C81.538 49.9114 81.6388 49.8465 81.7241 49.7638C81.8094 49.6812 81.8775 49.5825 81.9245 49.4734C81.9715 49.3643 81.9964 49.247 81.9979 49.1283V36.2149C81.9964 36.0962 81.9715 35.9789 81.9245 35.8698C81.8775 35.7607 81.8094 35.662 81.7241 35.5794C81.6388 35.4967 81.538 35.4318 81.4275 35.3882C81.317 35.3447 81.199 35.3235 81.0802 35.3257V35.34Z" fill="white"/>
<path fill-rule="evenodd" clip-rule="evenodd" d="M82.7329 33.6642V20.7679C82.7269 20.3466 82.5545 19.9448 82.2534 19.6501C81.9523 19.3554 81.5468 19.1917 81.1255 19.1947H1.6504C1.22933 19.1917 0.824185 19.3555 0.523516 19.6503C0.222846 19.9451 0.0511111 20.3469 0.0458492 20.7679V33.6642C0.0476097 33.9094 0.106786 34.1509 0.218636 34.3691C0.330486 34.5874 0.491902 34.7764 0.689949 34.921C0.476463 35.063 0.301132 35.2553 0.179377 35.4809C0.0576212 35.7065 -0.00682753 35.9586 -0.00830078 36.2149L-0.00830078 49.114C-0.00679148 49.5368 0.162415 49.9418 0.462176 50.2399C0.761937 50.5381 1.16776 50.7051 1.59055 50.7043H81.0799C81.502 50.7066 81.9079 50.5419 82.209 50.2461C82.5101 49.9504 82.682 49.5475 82.6873 49.1254V36.2149C82.6859 35.9689 82.6266 35.7267 82.5142 35.5079C82.4018 35.289 82.2395 35.0997 82.0404 34.9552C82.2522 34.8127 82.426 34.6206 82.5467 34.3956C82.6674 34.1706 82.7313 33.9195 82.7329 33.6642ZM81.9976 49.114C81.9957 49.2327 81.9705 49.3498 81.9234 49.4587C81.8763 49.5676 81.8082 49.6662 81.7229 49.7487C81.6377 49.8313 81.5371 49.8963 81.4267 49.94C81.3164 49.9836 81.1985 50.0051 81.0799 50.0032H1.60195C1.4832 50.0055 1.36518 49.9843 1.25468 49.9407C1.14418 49.8972 1.04338 49.8322 0.958081 49.7496C0.872786 49.667 0.80468 49.5682 0.757684 49.4592C0.710688 49.3501 0.685731 49.2328 0.684249 49.114V36.2149C0.691702 35.9778 0.792125 35.7531 0.96383 35.5894C1.13553 35.4257 1.36474 35.3361 1.60195 35.34H81.0799C81.3193 35.3369 81.5502 35.4287 81.7221 35.5953C81.8941 35.7619 81.9931 35.9898 81.9976 36.2292V49.114ZM82.0461 33.6642C82.0442 33.7831 82.0189 33.9004 81.9716 34.0095C81.9243 34.1186 81.8559 34.2173 81.7704 34.2999C81.6849 34.3825 81.5839 34.4474 81.4732 34.4909C81.3625 34.5344 81.2444 34.5557 81.1255 34.5534H1.6504C1.53175 34.5553 1.4139 34.5338 1.30356 34.4901C1.19323 34.4464 1.09258 34.3815 1.00736 34.2989C0.922138 34.2163 0.85402 34.1178 0.806894 34.0089C0.759767 33.9 0.734556 33.7828 0.732699 33.6642V20.7679C0.737197 20.5293 0.835931 20.3022 1.00734 20.1361C1.17875 19.97 1.40891 19.8785 1.64755 19.8816H81.1255C81.2441 19.8793 81.3621 19.9005 81.4726 19.9438C81.583 19.9871 81.6839 20.0518 81.7694 20.1341C81.8549 20.2164 81.9233 20.3147 81.9708 20.4235C82.0182 20.5322 82.0438 20.6493 82.0461 20.7679V33.6642Z" fill="#231F20"/>
<path d="M14.8438 20.52V33.915H27.6687V20.52H14.8438Z" fill="#231F20"/>
<path d="M28.207 20.52V33.915H41.032V20.52H28.207Z" fill="#231F20"/>
<path d="M41.6846 20.52V33.915H54.5096V20.52H41.6846Z" fill="#231F20"/>
<path d="M55.1509 20.52V33.915H67.9759V20.52H55.1509Z" fill="#231F20"/>
<path d="M1.37695 20.52V33.915H14.202V20.52H1.37695Z" fill="#231F20"/>
<path d="M8.08274 31.92C5.42369 31.92 4.00439 29.9507 4.00439 27.2973C4.00439 24.416 5.69444 22.6832 8.09414 22.6832C10.2943 22.6832 11.1636 23.6265 11.7763 25.3137L9.52769 26.1887C9.20564 25.3536 8.90069 24.8264 8.08274 24.8264C7.04819 24.8264 6.59789 25.8666 6.59789 27.2859C6.59789 28.6596 7.03394 29.7483 8.10839 29.7483C8.88645 29.7483 9.2199 29.3265 9.7044 28.4772L11.802 29.6172C11.2035 30.78 10.2031 31.92 8.08274 31.92Z" fill="white"/>
<path d="M22.0283 28.1266H20.5435L20.7116 27.5395C21.0308 26.3995 21.1733 25.9065 21.2816 25.3051C21.3956 25.9065 21.5353 26.391 21.8516 27.5395L22.0283 28.1266ZM25.8017 31.6749L22.5527 22.723H20.0447L16.8071 31.6749H19.4662L19.9421 30.0874H22.6297L23.1142 31.6749H25.8017Z" fill="white"/>
<path d="M35.8847 25.7469C35.8847 26.3853 35.5655 26.7444 34.7447 26.7444H33.2827V24.795H34.7846C35.5798 24.795 35.8847 25.1826 35.8847 25.7469ZM38.5324 31.7319L36.7426 28.3119C37.7258 27.8644 38.3528 27.0351 38.3528 25.6927C38.3528 23.5723 36.9592 22.7772 34.8616 22.7772H30.8716V31.7347H33.3112V28.6938H34.3115L35.7707 31.7176L38.5324 31.7319Z" fill="white"/>
<path d="M47.0164 24.8748V26.1203H49.8151V28.215H47.0164V31.7177H44.5483V22.7658H51.6306V24.8748H47.0164Z" fill="white"/>
<path d="M62.2105 28.1979H60.7285L60.8967 27.6108C61.2159 26.4708 61.3555 25.9777 61.4667 25.3764C61.5835 25.9777 61.7232 26.4594 62.0367 27.6108L62.2105 28.1979ZM65.9868 31.7461L62.7378 22.8H60.2298L56.9922 31.7461H59.6512L60.1357 30.1587H62.8204L63.3106 31.7461H65.9868Z" fill="white"/>
<path d="M68.5288 20.483V33.878H81.3538V20.483H68.5288ZM73.6816 33.5388L73.9068 33.2253C74.2562 32.7043 74.5741 32.1628 74.8587 31.6037C75.0952 32.0882 75.4458 32.6867 75.7963 33.2453L75.9987 33.5588L73.6816 33.5388ZM81.0033 33.5388H79.0938L76.3948 29.7113L79.4871 25.365H76.4091L75.8647 26.22C75.5185 26.746 75.2007 27.2902 74.9128 27.8502C74.6332 27.2885 74.3201 26.7442 73.9752 26.22L73.4308 25.365H70.2816L73.3767 29.7654L70.6435 33.5531H68.8737V20.8392H81.0033V33.5388Z" fill="#231F20"/>
<path d="M1.31152 35.8501V49.2451H14.1365V35.8501H1.31152ZM13.786 36.1949V48.9031H1.65352V36.1949H13.786Z" fill="#3678BC"/>
<path d="M14.7949 35.967V49.362H27.637V35.967H14.7949Z" fill="#3678BC"/>
<path d="M28.1729 35.967V49.362H40.9979V35.967H28.1729Z" fill="#3678BC"/>
<path d="M41.6367 35.967V49.362H54.4617V35.967H41.6367Z" fill="#3678BC"/>
<path d="M55.1055 35.967V49.362H67.9305V35.967H55.1055Z" fill="#3678BC"/>
<path d="M68.6001 36.0668V49.4618H81.4251V36.0668H68.6001Z" fill="#3678BC"/>
<path d="M10.7937 47.2046V45.5716H8.85005V37.7312H6.77525C6.76783 37.9573 6.70099 38.1775 6.58145 38.3696C6.46475 38.5468 6.3009 38.688 6.10835 38.7772C5.88819 38.8736 5.65468 38.936 5.4158 38.9624C5.13232 38.9998 4.84673 39.0188 4.5608 39.0194V40.5727H6.5558V45.5716H4.55225V47.2189L10.7937 47.2046Z" fill="#3678BC"/>
<path d="M25.3165 42.6931C25.3165 44.2017 24.9365 45.3493 24.1765 46.1359C23.8012 46.5365 23.3453 46.853 22.8389 47.0647C22.3324 47.2765 21.7869 47.3785 21.2381 47.3642C20.701 47.3784 20.1668 47.2794 19.6704 47.0737C19.174 46.868 18.7264 46.5601 18.3568 46.1701C17.5968 45.3797 17.2168 44.2311 17.2168 42.7244C17.2168 41.2177 17.5968 40.0606 18.3568 39.2531C18.7304 38.8586 19.1835 38.548 19.6861 38.3416C20.1887 38.1353 20.7293 38.038 21.2723 38.0561C21.8133 38.0337 22.3528 38.1277 22.8543 38.3317C23.3558 38.5358 23.8077 38.8451 24.1793 39.2389C24.9298 40.0312 25.3089 41.1826 25.3165 42.6931ZM22.7971 42.7216C22.78 41.0686 22.2613 40.2373 21.241 40.2278C20.2207 40.2183 19.7124 41.041 19.7162 42.6959C19.7162 44.3489 20.252 45.1783 21.2723 45.1897C22.2926 45.2011 22.7914 44.3632 22.7914 42.7216H22.7971Z" fill="white"/>
<path d="M37.9507 47.1105H35.6166L35.2005 45.1526C34.8794 43.5357 34.6742 42.2893 34.5849 41.4134C34.4994 42.2912 34.2932 43.5376 33.9664 45.1526L33.5503 47.1105H31.2703L29.1157 38.0846H31.6807L31.9258 39.5894C32.1671 41.0068 32.3476 42.3168 32.4673 43.5195C32.6155 42.3282 32.8407 41.0258 33.1399 39.6036L33.4506 38.0846H35.7306L36.0441 39.6036C36.3291 41.0286 36.5656 42.3282 36.711 43.5195C36.8345 42.3111 37.0159 41.0011 37.2553 39.5894L37.5004 38.0846H40.0654L37.9507 47.1105Z" fill="white"/>
<path d="M49.8807 47.1105L47.7945 44.1465C47.2625 43.3656 46.8084 42.6607 46.4322 42.0318C46.481 42.3736 46.5058 42.7183 46.5063 43.0635V47.1105H44.1807V38.0846H46.3182L48.2391 40.7522C48.4614 41.0543 48.7207 41.4305 49.0114 41.8922C49.2257 42.2153 49.4217 42.5503 49.5985 42.8954V42.4479C49.5985 42.2513 49.5757 42.0632 49.5615 41.8352C49.5444 41.3735 49.5358 40.9488 49.5358 40.5612V38.096H51.8614V47.1105H49.8807Z" fill="white"/>
<path d="M58.146 47.1105V38.0846H64.8378V40.1879H60.5371V41.3877H63.1192V43.4654H60.5371V45.0101H64.9233V47.1105H58.146Z" fill="white"/>
<path d="M76.0474 47.1105L74.6224 44.0582H73.6448V47.1105H71.2622V38.0846H75.1753C76.2155 38.0846 77.0449 38.2898 77.6633 38.7401C78.2818 39.1904 78.5753 39.9656 78.5839 41.0201C78.5592 42.3501 78.0357 43.2317 77.0135 43.6649L78.7549 47.1077L76.0474 47.1105ZM76.1699 41.0942C76.1699 40.4643 75.8222 40.1394 75.104 40.1252H73.6363V42.0917H75.0613C75.8251 42.0831 76.1785 41.7525 76.1699 41.0942Z" fill="white"/>
</g>
<defs>
<clipPath id="clip0_27_12253">
<rect width="85.5" height="57" fill="white" transform="translate(-0.00830078)"/>
</clipPath>
</defs>
</svg>
