<svg width="22" height="21" viewBox="0 0 22 21" fill="none" xmlns="http://www.w3.org/2000/svg">
<path d="M9.98718 15.8955C9.98718 15.5606 10.1202 15.2394 10.357 15.0026C10.5938 14.7658 10.915 14.6328 11.2499 14.6328C11.5848 14.6328 11.9059 14.7658 12.1427 15.0026C12.3795 15.2394 12.5126 15.5606 12.5126 15.8955C12.5126 16.2304 12.3795 16.5515 12.1427 16.7884C11.9059 17.0252 11.5848 17.1582 11.2499 17.1582C10.915 17.1582 10.5938 17.0252 10.357 16.7884C10.1202 16.5515 9.98718 16.2304 9.98718 15.8955ZM9.98718 10.8447C9.98718 10.5098 10.1202 10.1886 10.357 9.95182C10.5938 9.71502 10.915 9.58199 11.2499 9.58199C11.5848 9.58199 11.9059 9.71502 12.1427 9.95182C12.3795 10.1886 12.5126 10.5098 12.5126 10.8447C12.5126 11.1796 12.3795 11.5007 12.1427 11.7376C11.9059 11.9744 11.5848 12.1074 11.2499 12.1074C10.915 12.1074 10.5938 11.9744 10.357 11.7376C10.1202 11.5007 9.98718 11.1796 9.98718 10.8447ZM9.98718 5.79389C9.98718 5.459 10.1202 5.13783 10.357 4.90103C10.5938 4.66422 10.915 4.53119 11.2499 4.53119C11.5848 4.53119 11.9059 4.66422 12.1427 4.90103C12.3795 5.13783 12.5126 5.459 12.5126 5.79389C12.5126 6.12878 12.3795 6.44995 12.1427 6.68675C11.9059 6.92355 11.5848 7.05659 11.2499 7.05659C10.915 7.05659 10.5938 6.92355 10.357 6.68675C10.1202 6.44995 9.98718 6.12878 9.98718 5.79389Z" fill="black"/>
</svg>
