<svg width="40" height="40" viewBox="0 0 40 40" fill="none" xmlns="http://www.w3.org/2000/svg">
<circle cx="20" cy="20" r="20" fill="#F2F2F2"/>
<path d="M27.2778 18.6074C26.9951 18.6074 26.7521 18.3952 26.7198 18.108C26.4348 15.576 24.4676 13.611 21.9356 13.3297C21.6273 13.2952 21.4046 13.0177 21.4391 12.7087C21.4728 12.4005 21.7496 12.1702 22.0601 12.2122C25.1178 12.5512 27.4938 14.9242 27.8373 17.982C27.8726 18.291 27.6498 18.5692 27.3416 18.6037C27.3206 18.6059 27.2988 18.6074 27.2778 18.6074Z" fill="#1E1E1E"/>
<path d="M24.6218 18.6155C24.3578 18.6155 24.123 18.4295 24.0705 18.161C23.8545 17.051 22.9988 16.1953 21.8903 15.98C21.585 15.9208 21.3863 15.626 21.4455 15.3208C21.5048 15.0155 21.807 14.8168 22.1048 14.876C23.6655 15.179 24.8708 16.3835 25.1745 17.945C25.2338 18.251 25.035 18.5458 24.7305 18.605C24.6938 18.6118 24.6578 18.6155 24.6218 18.6155Z" fill="#1E1E1E"/>
<path fill-rule="evenodd" clip-rule="evenodd" d="M16.6115 23.3301C20.1463 26.8656 22.4998 27.7926 23.9863 27.7926C24.7198 27.7926 25.2433 27.5669 25.592 27.3164C25.6078 27.3074 27.2218 26.3204 27.5045 24.8264C27.638 24.1251 27.443 23.4314 26.942 22.8194C24.878 20.3136 23.8265 20.5476 22.6655 21.1124C21.9523 21.4619 21.389 21.7334 19.7983 20.1441C18.2084 18.5536 18.4827 17.9903 18.8299 17.2771C19.3954 16.1161 19.628 15.0644 17.1215 12.9989C16.511 12.5001 15.8217 12.3051 15.1212 12.4364C13.649 12.7116 12.6575 14.2994 12.6575 14.2994C11.8685 15.4071 11.333 18.0524 16.6115 23.3301ZM15.3507 13.5374C15.4167 13.5269 15.482 13.5209 15.5465 13.5209C15.8405 13.5209 16.124 13.6356 16.4067 13.8681C18.428 15.5331 18.1722 16.0581 17.8182 16.7849C17.2865 17.8776 17.0082 18.9441 19.0025 20.9399C20.999 22.9356 22.0663 22.6574 23.1575 22.1241L23.1593 22.1232C23.8852 21.7704 24.41 21.5153 26.0728 23.5341C26.357 23.8806 26.4658 24.2271 26.4043 24.5924C26.2625 25.4324 25.286 26.1846 24.9905 26.3676C23.9323 27.1221 21.3845 26.5124 17.4065 22.5351C13.43 18.5579 12.8195 16.0101 13.601 14.9114C13.757 14.6571 14.5122 13.6791 15.3507 13.5374Z" fill="#1E1E1E"/>
</svg>
