<svg width="18" height="18" viewBox="0 0 18 18" fill="none" xmlns="http://www.w3.org/2000/svg">
<g clip-path="url(#clip0_215_9)">
<path d="M17.4669 0.552368H6.93459C6.66997 0.552368 6.45583 0.7665 6.45583 1.03112C6.45583 1.29575 6.66997 1.50988 6.93459 1.50988H16.3112L0.851205 16.9698C0.664182 17.1568 0.664182 17.4598 0.851205 17.6468C0.944694 17.7403 1.06722 17.787 1.1897 17.787C1.31219 17.787 1.43467 17.7403 1.5282 17.6468L16.9881 2.18683V11.5634C16.9881 11.8281 17.2023 12.0422 17.4669 12.0422C17.7315 12.0422 17.9457 11.8281 17.9457 11.5634V1.03112C17.9456 0.7665 17.7315 0.552368 17.4669 0.552368Z" fill="#1E1E1E"/>
</g>
<defs>
<clipPath id="clip0_215_9">
<rect width="17.2347" height="17.2347" fill="white" transform="translate(0.711426 0.552368)"/>
</clipPath>
</defs>
</svg>
