<svg width="67" height="24" viewBox="0 0 67 24" fill="none" xmlns="http://www.w3.org/2000/svg">
<path d="M22.6541 0.154168C26.7691 -0.0881819 34.5507 -0.205685 38.335 1.0795C42.1192 2.36469 45.0585 5.3904 48.4239 6.99138C50.5696 8.01219 56.7861 8.18844 59.6518 8.76861C61.5991 9.16518 65.2731 9.80411 66.03 11.8824C66.1402 12.1909 66.9852 15.1432 66.9999 15.3194C67.0293 15.6132 66.8236 17.7282 66.7427 18.0293C66.1329 20.4014 62.3192 19.88 60.4895 20.2178C58.8729 24.1028 53.766 25.3586 50.7239 22.2447C50.114 21.6205 49.7098 20.2031 48.9824 20.1223H20.3101C19.8912 20.2105 19.1123 21.8261 18.62 22.3108C15.4383 25.4247 10.1697 23.9632 8.80295 19.858C5.42282 19.2337 -0.22052 20.0269 -7.70963e-05 15.1285C0.0881001 13.2044 0.984569 13.0061 1.19032 12.1028C1.47689 10.8249 1.03601 8.82736 1.44015 7.43201C1.80756 6.1762 4.1516 6.68293 5.18034 6.60215C8.86174 6.31573 12.4917 3.30472 15.813 1.76249C18.2085 0.653556 20.0162 0.308391 22.6541 0.154168ZM29.0176 7.48342C28.7237 6.50668 28.6281 2.43079 28.2387 1.85062C28.0697 1.59358 24.4324 1.64499 23.8225 1.67436C23.3595 1.70374 21.0228 1.94609 20.7951 2.07828C20.7216 2.12234 20.582 2.48954 20.413 2.65845C19.0683 3.95833 17.775 5.30227 16.4376 6.60949C16.1658 6.8445 16.6434 7.48342 16.7977 7.48342H29.0176ZM46.0725 7.48342C44.8307 6.60215 43.5007 5.72822 42.1854 4.94976C39.9883 3.64254 37.005 1.85796 34.3743 1.85796H30.3329C30.2815 1.85796 30.0831 1.61561 29.892 1.68171L30.5974 7.48342H46.0725ZM18.113 2.56298C17.1504 2.93752 16.2172 3.40753 15.2987 3.87755C12.8077 5.14805 8.88378 7.88734 6.22377 8.16641C5.59183 8.2325 3.11552 8.03422 2.89508 8.35001C2.63054 8.72455 2.93182 11.6842 2.8069 12.4773C2.68198 13.2704 2.00595 13.6303 1.83695 14.1444C1.60916 14.8421 1.45485 16.2301 2.0133 16.7955C3.13021 17.9339 7.0541 17.9926 8.61925 18.022C8.56781 12.7197 15.2987 10.2815 18.8184 14.2398C19.9353 15.4957 20.1852 16.7955 20.5011 18.3818L48.7766 18.3451C49.0706 18.2496 49.2763 16.4651 49.5041 15.9069C51.0031 12.279 55.7353 11.2141 58.7407 13.7111C60.2985 15.011 60.5703 16.4137 61.0112 18.2937C63.3553 18.4479 65.6846 18.8592 65.3393 15.7233C65.2805 15.2092 64.8249 13.5936 64.6706 12.8739C64.2885 11.0893 60.8349 10.6266 59.2918 10.3402C55.4414 9.62051 51.297 9.1505 47.3878 9.05503C37.7545 8.87143 27.232 9.89223 17.6574 9.23862C16.6581 9.17253 15.1958 8.95955 14.8431 7.83593C14.1303 5.55931 17.0108 4.1199 18.1056 2.55564L18.113 2.56298ZM18.6715 18.1615C18.6715 15.8408 16.783 13.9534 14.461 13.9534C12.139 13.9534 10.2505 15.8408 10.2505 18.1615C10.2505 20.4822 12.139 22.3696 14.461 22.3696C16.783 22.3696 18.6715 20.4822 18.6715 18.1615ZM59.1595 18.1835C59.1595 15.8629 57.2784 13.9902 54.9637 13.9902C52.6491 13.9902 50.768 15.8702 50.768 18.1835C50.768 20.4969 52.6491 22.3769 54.9637 22.3769C57.2784 22.3769 59.1595 20.4969 59.1595 18.1835Z" fill="black"/>
</svg>
