<svg width="56" height="24" viewBox="0 0 56 24" fill="none" xmlns="http://www.w3.org/2000/svg">
<g clip-path="url(#clip0_35_1855)">
<path d="M16.6442 0.118822C20.3369 0.0475351 25.1513 -0.196029 28.7426 0.314862C33.0021 0.926743 37.1006 5.07328 40.6144 7.31288C44.5279 8.13268 49.5927 8.02575 53.2318 9.701C55.6419 10.8119 54.938 11.6614 55.5286 13.7347C55.6002 13.9782 55.7851 14.204 55.8686 14.4535C56.0953 15.1604 56.0059 17.0079 55.7374 17.697C55.3675 18.6357 53.9119 19.3842 52.9395 19.4733C52.6054 19.503 51.0842 19.5327 50.8396 19.4614C50.3623 19.3248 50.2669 17.8812 50.1475 17.4119C49.3899 14.4297 47.4272 13.1525 44.331 13.3663C41.8135 13.5386 40.4712 14.9287 39.8627 17.2693C39.7255 17.798 39.6658 18.7307 39.4868 19.1406C39.4272 19.2713 39.2601 19.4436 39.117 19.4733H17.2646C17.1871 19.4733 17.1393 19.4198 17.0797 19.3723C16.8291 19.1762 16.5666 17.5188 16.4294 17.0673C15.7374 14.7505 14.3116 13.5267 11.8299 13.3604C8.82315 13.1584 6.95589 14.4119 6.18632 17.2931C6.067 17.7386 6.00734 18.5762 5.85224 18.9267C5.57781 19.5446 4.61137 19.0634 4.14008 18.9089C3.20943 18.6 2.04612 18.1545 1.16916 17.7267C0.88281 17.5901 0.387657 17.3941 0.238515 17.1089C-0.000112994 16.6574 -0.0478386 14.7267 0.0356812 14.1921C0.137098 13.5505 0.626285 13.4317 0.650148 12.701C0.674011 12.1426 0.489074 11.602 0.435383 11.0911C0.351863 10.301 0.471177 8.0614 0.900707 7.40199C1.10354 7.08714 1.67028 6.65942 1.95664 6.34456C3.01256 5.16833 3.96111 3.89704 5.0588 2.76239C5.17215 2.48912 4.32502 1.63961 5.21391 1.16437C5.8761 0.813872 8.67998 0.534664 9.56887 0.445555C11.9015 0.213872 14.2997 0.160406 16.6382 0.112882L16.6442 0.118822ZM50.6129 10.705C51.1259 10.6159 51.8716 10.7703 52.4085 10.705L51.0842 10.2357C47.8746 9.34456 44.5219 9.17823 41.2408 8.6614C39.2601 8.35249 38.0193 6.90892 36.4622 5.76239C33.9507 3.9208 31.0155 1.67526 27.8299 1.36635C25.1632 1.10496 22.3235 1.2713 19.6569 1.301C16.5965 1.33664 13.5361 1.301 10.4876 1.58021C9.03792 1.71684 7.60615 2.00199 6.15052 2.07328C6.21614 2.47724 6.53829 2.79803 6.28177 3.21981C4.95142 4.74654 3.71055 6.36239 2.27282 7.79407C4.18184 7.75249 5.33322 8.59605 4.18781 10.4733C3.66879 11.3228 2.80973 11.8515 1.77766 11.7624C1.85522 12.499 1.95067 13.1168 1.61659 13.8119C1.52114 14.0139 1.25268 14.2812 1.21689 14.4654C1.10951 15.0416 1.29444 15.8258 1.27655 16.4198C2.43389 16.8772 3.5972 17.3465 4.80824 17.6555C5.18408 15.2436 6.81868 12.897 9.30638 12.3386C10.6546 12.0357 12.6889 12.0951 13.9954 12.5465C16.2504 13.3248 17.3243 15.3446 17.897 17.5188H38.4727C39.0513 15.1069 40.3041 12.9564 42.8813 12.3505C44.1103 12.0654 45.9059 12.0832 47.1289 12.404C49.7359 13.0931 51.2631 15.505 51.5554 18.0713C52.3847 18.0475 54.1565 18.2376 54.5502 17.299C54.7292 16.8832 54.8067 15.202 54.6934 14.7683C54.5204 14.097 53.0827 14.1921 52.4682 14.0317C52.0864 13.9307 51.6867 13.7525 51.3765 13.5089C51.114 13.301 50.0103 12.1782 49.9507 11.9109C49.8373 11.4238 50.0819 10.7881 50.6069 10.699L50.6129 10.705ZM3.47192 9.09506C2.90518 8.91684 2.30265 8.9406 1.71204 8.94655L1.56887 10.5624C2.61286 10.7347 3.32875 10.0871 3.46596 9.09506H3.47192ZM53.2199 11.7564C52.5935 11.8277 51.8478 11.703 51.2094 11.7564C51.9372 12.8079 52.85 12.998 54.067 13.0931C54.1863 13.099 54.1804 13.105 54.1684 12.9921C54.1147 12.5287 53.9238 12.0238 53.888 11.5485C53.7031 11.6139 53.4048 11.7386 53.2199 11.7564Z" fill="black"/>
<path d="M50.0581 18.9387C50.0581 21.7367 47.7792 24.006 44.9694 24.006C42.1595 24.006 39.8806 21.7367 39.8806 18.9387C39.8806 16.1406 42.1595 13.8713 44.9694 13.8713C47.7792 13.8713 50.0581 16.1406 50.0581 18.9387ZM48.7874 18.9268C48.7874 16.8238 47.0752 15.1189 44.9634 15.1189C42.8515 15.1189 41.1394 16.8238 41.1394 18.9268C41.1394 21.0298 42.8515 22.7347 44.9634 22.7347C47.0752 22.7347 48.7874 21.0298 48.7874 18.9268Z" fill="black"/>
<path d="M16.4532 18.7901C16.4532 21.5821 14.1802 23.8455 11.3764 23.8455C8.57249 23.8455 6.29956 21.5821 6.29956 18.7901C6.29956 15.998 8.57249 13.7346 11.3764 13.7346C14.1802 13.7346 16.4532 15.998 16.4532 18.7901ZM15.1944 18.7841C15.1944 16.6871 13.4882 14.9881 11.3823 14.9881C9.27644 14.9881 7.57025 16.6871 7.57025 18.7841C7.57025 20.8812 9.27644 22.5802 11.3823 22.5802C13.4882 22.5802 15.1944 20.8812 15.1944 18.7841Z" fill="black"/>
<path d="M18.8335 2.29899C21.3272 2.23959 24.0893 2.1683 26.571 2.27523C29.5897 2.40592 30.8604 3.1782 33.2526 4.8178C34.3384 5.56038 36.2176 6.83166 37.1124 7.71681C38.0431 8.64355 36.2235 8.94058 35.5733 9.06533C33.2586 9.52275 30.8723 9.22572 28.5457 9.15444C22.8484 8.98216 17.0796 8.88711 11.4122 8.52473C10.5173 8.46533 9.47335 8.50097 8.74553 7.95444C7.15269 6.75444 8.90661 5.26335 9.86112 4.38414C11.967 2.43563 12.6829 2.5782 15.5047 2.4178C16.6083 2.3584 17.7358 2.32275 18.8395 2.29899H18.8335ZM23.2899 3.46929L15.1229 3.69503L13.7687 7.47325L23.6419 7.82374L23.2899 3.46929ZM35.4182 7.89503C33.5748 6.64751 31.6478 4.82968 29.5658 3.998C28.0446 3.39206 26.2429 3.54652 24.6322 3.46929L24.9126 7.89503C28.2355 7.82968 31.5584 8.23364 34.8813 8.02572L35.4182 7.89503ZM13.703 3.75444C11.8119 3.63563 10.6784 5.59008 9.39579 6.66533C9.28841 6.76632 9.36 6.87919 9.43755 6.98018C10.3563 7.4079 11.5554 7.27127 12.5636 7.32473L13.6971 3.75444H13.703Z" fill="black"/>
</g>
<defs>
<clipPath id="clip0_35_1855">
<rect width="56" height="24" fill="white"/>
</clipPath>
</defs>
</svg>
