<svg width="16" height="16" viewBox="0 0 16 16" fill="none" xmlns="http://www.w3.org/2000/svg">
<path fill-rule="evenodd" clip-rule="evenodd" d="M2.66659 1.5C1.65459 1.5 0.833252 2.32133 0.833252 3.33333C0.833252 4.34533 1.65459 5.16667 2.66659 5.16667C3.67859 5.16667 4.49992 4.34533 4.49992 3.33333C4.49992 2.32133 3.67859 1.5 2.66659 1.5ZM2.66659 2.5C3.12659 2.5 3.49992 2.87333 3.49992 3.33333C3.49992 3.79333 3.12659 4.16667 2.66659 4.16667C2.20659 4.16667 1.83325 3.79333 1.83325 3.33333C1.83325 2.87333 2.20659 2.5 2.66659 2.5Z" fill="#050B20"/>
<path fill-rule="evenodd" clip-rule="evenodd" d="M2.66659 10.8334C1.65459 10.8334 0.833252 11.6547 0.833252 12.6667C0.833252 13.6787 1.65459 14.5 2.66659 14.5C3.67859 14.5 4.49992 13.6787 4.49992 12.6667C4.49992 11.6547 3.67859 10.8334 2.66659 10.8334ZM2.66659 11.8334C3.12659 11.8334 3.49992 12.2067 3.49992 12.6667C3.49992 13.1267 3.12659 13.5 2.66659 13.5C2.20659 13.5 1.83325 13.1267 1.83325 12.6667C1.83325 12.2067 2.20659 11.8334 2.66659 11.8334Z" fill="#050B20"/>
<path fill-rule="evenodd" clip-rule="evenodd" d="M7.99984 1.5C6.98784 1.5 6.1665 2.32133 6.1665 3.33333C6.1665 4.34533 6.98784 5.16667 7.99984 5.16667C9.01184 5.16667 9.83317 4.34533 9.83317 3.33333C9.83317 2.32133 9.01184 1.5 7.99984 1.5ZM7.99984 2.5C8.45984 2.5 8.83317 2.87333 8.83317 3.33333C8.83317 3.79333 8.45984 4.16667 7.99984 4.16667C7.53984 4.16667 7.1665 3.79333 7.1665 3.33333C7.1665 2.87333 7.53984 2.5 7.99984 2.5Z" fill="#050B20"/>
<path fill-rule="evenodd" clip-rule="evenodd" d="M7.99984 10.8334C6.98784 10.8334 6.1665 11.6547 6.1665 12.6667C6.1665 13.6787 6.98784 14.5 7.99984 14.5C9.01184 14.5 9.83317 13.6787 9.83317 12.6667C9.83317 11.6547 9.01184 10.8334 7.99984 10.8334ZM7.99984 11.8334C8.45984 11.8334 8.83317 12.2067 8.83317 12.6667C8.83317 13.1267 8.45984 13.5 7.99984 13.5C7.53984 13.5 7.1665 13.1267 7.1665 12.6667C7.1665 12.2067 7.53984 11.8334 7.99984 11.8334Z" fill="#050B20"/>
<path fill-rule="evenodd" clip-rule="evenodd" d="M13.3333 1.5C12.3213 1.5 11.5 2.32133 11.5 3.33333C11.5 4.34533 12.3213 5.16667 13.3333 5.16667C14.3453 5.16667 15.1667 4.34533 15.1667 3.33333C15.1667 2.32133 14.3453 1.5 13.3333 1.5ZM13.3333 2.5C13.7933 2.5 14.1667 2.87333 14.1667 3.33333C14.1667 3.79333 13.7933 4.16667 13.3333 4.16667C12.8733 4.16667 12.5 3.79333 12.5 3.33333C12.5 2.87333 12.8733 2.5 13.3333 2.5Z" fill="#050B20"/>
<path fill-rule="evenodd" clip-rule="evenodd" d="M13.3333 10.8334C12.3213 10.8334 11.5 11.6547 11.5 12.6667C11.5 13.6787 12.3213 14.5 13.3333 14.5C14.3453 14.5 15.1667 13.6787 15.1667 12.6667C15.1667 11.6547 14.3453 10.8334 13.3333 10.8334ZM13.3333 11.8334C13.7933 11.8334 14.1667 12.2067 14.1667 12.6667C14.1667 13.1267 13.7933 13.5 13.3333 13.5C12.8733 13.5 12.5 13.1267 12.5 12.6667C12.5 12.2067 12.8733 11.8334 13.3333 11.8334Z" fill="#050B20"/>
<path fill-rule="evenodd" clip-rule="evenodd" d="M2.1665 4.66663V11.3333C2.1665 11.6093 2.3905 11.8333 2.6665 11.8333C2.9425 11.8333 3.1665 11.6093 3.1665 11.3333V4.66663C3.1665 4.39063 2.9425 4.16663 2.6665 4.16663C2.3905 4.16663 2.1665 4.39063 2.1665 4.66663Z" fill="#050B20"/>
<path fill-rule="evenodd" clip-rule="evenodd" d="M7.5 4.66663V11.3333C7.5 11.6093 7.724 11.8333 8 11.8333C8.276 11.8333 8.5 11.6093 8.5 11.3333V4.66663C8.5 4.39063 8.276 4.16663 8 4.16663C7.724 4.16663 7.5 4.39063 7.5 4.66663Z" fill="#050B20"/>
<path fill-rule="evenodd" clip-rule="evenodd" d="M12.8332 4.66663V7.33329C12.8332 7.42529 12.7585 7.49996 12.6665 7.49996H2.6665C2.3905 7.49996 2.1665 7.72396 2.1665 7.99996C2.1665 8.27596 2.3905 8.49996 2.6665 8.49996H12.6665C13.3112 8.49996 13.8332 7.97729 13.8332 7.33329C13.8332 6.36063 13.8332 4.66663 13.8332 4.66663C13.8332 4.39063 13.6092 4.16663 13.3332 4.16663C13.0572 4.16663 12.8332 4.39063 12.8332 4.66663Z" fill="#050B20"/>
</svg>
