<svg width="221" height="35" viewBox="0 0 221 35" fill="none" xmlns="http://www.w3.org/2000/svg">
<path d="M23.6364 13.1307V11.3636H32.9205V13.1307H29.3239V23H27.233V13.1307H23.6364ZM33.7131 23V14.2727H35.7074V15.7273H35.7983C35.9574 15.2235 36.2301 14.8352 36.6165 14.5625C37.0066 14.286 37.4517 14.1477 37.9517 14.1477C38.0653 14.1477 38.1922 14.1534 38.3324 14.1648C38.4763 14.1723 38.5956 14.1856 38.6903 14.2045V16.0966C38.6032 16.0663 38.465 16.0398 38.2756 16.017C38.09 15.9905 37.91 15.9773 37.7358 15.9773C37.3608 15.9773 37.0237 16.0587 36.7244 16.2216C36.429 16.3807 36.196 16.6023 36.0256 16.8864C35.8551 17.1705 35.7699 17.4981 35.7699 17.8693V23H33.7131ZM43.5611 23.1705C42.6861 23.1705 41.9304 22.9886 41.294 22.625C40.6615 22.2576 40.1747 21.7386 39.8338 21.0682C39.4929 20.3939 39.3224 19.6004 39.3224 18.6875C39.3224 17.7898 39.4929 17.0019 39.8338 16.3239C40.1785 15.642 40.6596 15.1117 41.277 14.733C41.8944 14.3504 42.6198 14.1591 43.4531 14.1591C43.991 14.1591 44.4986 14.2462 44.9759 14.4205C45.4569 14.5909 45.8812 14.8561 46.2486 15.2159C46.6198 15.5758 46.9115 16.0341 47.1236 16.5909C47.3357 17.1439 47.4418 17.803 47.4418 18.5682V19.1989H40.2884V17.8125H45.4702C45.4664 17.4186 45.3812 17.0682 45.2145 16.7614C45.0478 16.4508 44.8149 16.2064 44.5156 16.0284C44.2202 15.8504 43.8755 15.7614 43.4815 15.7614C43.0611 15.7614 42.6918 15.8636 42.3736 16.0682C42.0554 16.2689 41.8073 16.5341 41.6293 16.8636C41.455 17.1894 41.366 17.5473 41.3622 17.9375V19.1477C41.3622 19.6553 41.455 20.0909 41.6406 20.4545C41.8262 20.8144 42.0857 21.0909 42.419 21.2841C42.7524 21.4735 43.1425 21.5682 43.5895 21.5682C43.8887 21.5682 44.1596 21.5265 44.402 21.4432C44.6444 21.3561 44.8546 21.2292 45.0327 21.0625C45.2107 20.8958 45.3452 20.6894 45.4361 20.4432L47.3565 20.6591C47.2353 21.1667 47.0043 21.6098 46.6634 21.9886C46.3262 22.3636 45.8944 22.6553 45.3679 22.8636C44.8414 23.0682 44.2391 23.1705 43.5611 23.1705ZM51.2386 17.8864V23H49.1818V14.2727H51.1477V15.7557H51.25C51.4508 15.267 51.7708 14.8788 52.2102 14.5909C52.6534 14.303 53.2008 14.1591 53.8523 14.1591C54.4545 14.1591 54.9792 14.2879 55.4261 14.5455C55.8769 14.803 56.2254 15.1761 56.4716 15.6648C56.7216 16.1534 56.8447 16.7462 56.8409 17.4432V23H54.7841V17.7614C54.7841 17.178 54.6326 16.7216 54.3295 16.392C54.0303 16.0625 53.6155 15.8977 53.0852 15.8977C52.7254 15.8977 52.4053 15.9773 52.125 16.1364C51.8485 16.2917 51.6307 16.517 51.4716 16.8125C51.3163 17.108 51.2386 17.4659 51.2386 17.8864ZM62.1705 23.1534C61.4848 23.1534 60.8712 22.9773 60.3295 22.625C59.7879 22.2727 59.3598 21.7614 59.0455 21.0909C58.7311 20.4205 58.5739 19.6061 58.5739 18.6477C58.5739 17.678 58.733 16.8598 59.0511 16.1932C59.3731 15.5227 59.8068 15.017 60.3523 14.6761C60.8977 14.3314 61.5057 14.1591 62.1761 14.1591C62.6875 14.1591 63.108 14.2462 63.4375 14.4205C63.767 14.5909 64.0284 14.7973 64.2216 15.0398C64.4148 15.2784 64.5644 15.5038 64.6705 15.7159H64.7557V11.3636H66.8182V23H64.7955V21.625H64.6705C64.5644 21.8371 64.411 22.0625 64.2102 22.3011C64.0095 22.536 63.7443 22.7367 63.4148 22.9034C63.0852 23.0701 62.6705 23.1534 62.1705 23.1534ZM62.7443 21.4659C63.1799 21.4659 63.5511 21.3485 63.858 21.1136C64.1648 20.875 64.3977 20.5436 64.5568 20.1193C64.7159 19.6951 64.7955 19.2008 64.7955 18.6364C64.7955 18.072 64.7159 17.5814 64.5568 17.1648C64.4015 16.7481 64.1705 16.4242 63.8636 16.1932C63.5606 15.9621 63.1875 15.8466 62.7443 15.8466C62.286 15.8466 61.9034 15.9659 61.5966 16.2045C61.2898 16.4432 61.0587 16.7727 60.9034 17.1932C60.7481 17.6136 60.6705 18.0947 60.6705 18.6364C60.6705 19.1818 60.7481 19.6686 60.9034 20.0966C61.0625 20.5208 61.2955 20.8561 61.6023 21.1023C61.9129 21.3447 62.2936 21.4659 62.7443 21.4659ZM69.0099 23V14.2727H71.0668V23H69.0099ZM70.044 13.0341C69.7183 13.0341 69.438 12.9261 69.2031 12.7102C68.9683 12.4905 68.8509 12.2273 68.8509 11.9205C68.8509 11.6098 68.9683 11.3466 69.2031 11.1307C69.438 10.911 69.7183 10.8011 70.044 10.8011C70.3736 10.8011 70.6539 10.911 70.8849 11.1307C71.1198 11.3466 71.2372 11.6098 71.2372 11.9205C71.2372 12.2273 71.1198 12.4905 70.8849 12.7102C70.6539 12.9261 70.3736 13.0341 70.044 13.0341ZM75.2386 17.8864V23H73.1818V14.2727H75.1477V15.7557H75.25C75.4508 15.267 75.7708 14.8788 76.2102 14.5909C76.6534 14.303 77.2008 14.1591 77.8523 14.1591C78.4545 14.1591 78.9792 14.2879 79.4261 14.5455C79.8769 14.803 80.2254 15.1761 80.4716 15.6648C80.7216 16.1534 80.8447 16.7462 80.8409 17.4432V23H78.7841V17.7614C78.7841 17.178 78.6326 16.7216 78.3295 16.392C78.0303 16.0625 77.6155 15.8977 77.0852 15.8977C76.7254 15.8977 76.4053 15.9773 76.125 16.1364C75.8485 16.2917 75.6307 16.517 75.4716 16.8125C75.3163 17.108 75.2386 17.4659 75.2386 17.8864ZM86.7273 26.4545C85.9886 26.4545 85.3542 26.3542 84.8239 26.1534C84.2936 25.9564 83.8674 25.6913 83.5455 25.358C83.2235 25.0246 83 24.6553 82.875 24.25L84.7273 23.8011C84.8106 23.9716 84.9318 24.1402 85.0909 24.3068C85.25 24.4773 85.464 24.6174 85.733 24.7273C86.0057 24.8409 86.3485 24.8977 86.7614 24.8977C87.3447 24.8977 87.8277 24.7557 88.2102 24.4716C88.5928 24.1913 88.7841 23.7292 88.7841 23.0852V21.4318H88.6818C88.5758 21.6439 88.4205 21.8617 88.2159 22.0852C88.0152 22.3087 87.7481 22.4962 87.4148 22.6477C87.0852 22.7992 86.6705 22.875 86.1705 22.875C85.5 22.875 84.892 22.7178 84.3466 22.4034C83.8049 22.0852 83.3731 21.6117 83.0511 20.983C82.733 20.3504 82.5739 19.5587 82.5739 18.608C82.5739 17.6496 82.733 16.8409 83.0511 16.1818C83.3731 15.5189 83.8068 15.017 84.3523 14.6761C84.8977 14.3314 85.5057 14.1591 86.1761 14.1591C86.6875 14.1591 87.108 14.2462 87.4375 14.4205C87.7708 14.5909 88.036 14.7973 88.233 15.0398C88.4299 15.2784 88.5795 15.5038 88.6818 15.7159H88.7955V14.2727H90.8239V23.142C90.8239 23.8883 90.6458 24.5057 90.2898 24.9943C89.9337 25.483 89.447 25.8485 88.8295 26.0909C88.2121 26.3333 87.5114 26.4545 86.7273 26.4545ZM86.7443 21.2614C87.1799 21.2614 87.5511 21.1553 87.858 20.9432C88.1648 20.7311 88.3977 20.4261 88.5568 20.0284C88.7159 19.6307 88.7955 19.1534 88.7955 18.5966C88.7955 18.0473 88.7159 17.5663 88.5568 17.1534C88.4015 16.7405 88.1705 16.4205 87.8636 16.1932C87.5606 15.9621 87.1875 15.8466 86.7443 15.8466C86.286 15.8466 85.9034 15.9659 85.5966 16.2045C85.2898 16.4432 85.0587 16.7708 84.9034 17.1875C84.7481 17.6004 84.6705 18.0701 84.6705 18.5966C84.6705 19.1307 84.7481 19.5985 84.9034 20C85.0625 20.3977 85.2955 20.7083 85.6023 20.9318C85.9129 21.1515 86.2936 21.2614 86.7443 21.2614ZM103.315 14.5625C103.262 14.0663 103.039 13.6799 102.645 13.4034C102.255 13.1269 101.747 12.9886 101.122 12.9886C100.683 12.9886 100.306 13.0549 99.9915 13.1875C99.6771 13.3201 99.4366 13.5 99.2699 13.7273C99.1032 13.9545 99.018 14.214 99.0142 14.5057C99.0142 14.7481 99.0691 14.9583 99.179 15.1364C99.2926 15.3144 99.446 15.4659 99.6392 15.5909C99.8324 15.7121 100.046 15.8144 100.281 15.8977C100.516 15.9811 100.753 16.0511 100.991 16.108L102.082 16.3807C102.522 16.483 102.944 16.6212 103.349 16.7955C103.759 16.9697 104.124 17.1894 104.446 17.4545C104.772 17.7197 105.029 18.0398 105.219 18.4148C105.408 18.7898 105.503 19.2292 105.503 19.733C105.503 20.4148 105.329 21.0152 104.98 21.5341C104.632 22.0492 104.128 22.4527 103.469 22.7443C102.813 23.0322 102.02 23.1761 101.088 23.1761C100.183 23.1761 99.3968 23.036 98.7301 22.7557C98.0672 22.4754 97.5483 22.0663 97.1733 21.5284C96.8021 20.9905 96.6013 20.3352 96.571 19.5625H98.6449C98.6752 19.9678 98.8002 20.3049 99.0199 20.5739C99.2396 20.8428 99.5256 21.0436 99.8778 21.1761C100.234 21.3087 100.632 21.375 101.071 21.375C101.529 21.375 101.931 21.3068 102.276 21.1705C102.624 21.0303 102.897 20.8371 103.094 20.5909C103.291 20.3409 103.391 20.0492 103.395 19.7159C103.391 19.4129 103.302 19.1629 103.128 18.9659C102.954 18.7652 102.709 18.5985 102.395 18.4659C102.084 18.3295 101.721 18.2083 101.304 18.1023L99.9801 17.7614C99.0218 17.5152 98.2642 17.142 97.7074 16.642C97.1544 16.1383 96.8778 15.4697 96.8778 14.6364C96.8778 13.9508 97.0634 13.3504 97.4347 12.8352C97.8097 12.3201 98.3191 11.9205 98.9631 11.6364C99.607 11.3485 100.336 11.2045 101.151 11.2045C101.976 11.2045 102.7 11.3485 103.321 11.6364C103.946 11.9205 104.437 12.3163 104.793 12.8239C105.149 13.3277 105.332 13.9072 105.344 14.5625H103.315ZM111.155 23.1705C110.28 23.1705 109.524 22.9886 108.888 22.625C108.255 22.2576 107.768 21.7386 107.428 21.0682C107.087 20.3939 106.916 19.6004 106.916 18.6875C106.916 17.7898 107.087 17.0019 107.428 16.3239C107.772 15.642 108.253 15.1117 108.871 14.733C109.488 14.3504 110.214 14.1591 111.047 14.1591C111.585 14.1591 112.092 14.2462 112.57 14.4205C113.051 14.5909 113.475 14.8561 113.842 15.2159C114.214 15.5758 114.505 16.0341 114.717 16.5909C114.929 17.1439 115.036 17.803 115.036 18.5682V19.1989H107.882V17.8125H113.064C113.06 17.4186 112.975 17.0682 112.808 16.7614C112.642 16.4508 112.409 16.2064 112.109 16.0284C111.814 15.8504 111.469 15.7614 111.075 15.7614C110.655 15.7614 110.286 15.8636 109.967 16.0682C109.649 16.2689 109.401 16.5341 109.223 16.8636C109.049 17.1894 108.96 17.5473 108.956 17.9375V19.1477C108.956 19.6553 109.049 20.0909 109.234 20.4545C109.42 20.8144 109.679 21.0909 110.013 21.2841C110.346 21.4735 110.736 21.5682 111.183 21.5682C111.482 21.5682 111.753 21.5265 111.996 21.4432C112.238 21.3561 112.448 21.2292 112.626 21.0625C112.804 20.8958 112.939 20.6894 113.03 20.4432L114.95 20.6591C114.829 21.1667 114.598 21.6098 114.257 21.9886C113.92 22.3636 113.488 22.6553 112.962 22.8636C112.435 23.0682 111.833 23.1705 111.155 23.1705ZM119.287 23.1761C118.734 23.1761 118.236 23.0777 117.793 22.8807C117.353 22.6799 117.005 22.3845 116.747 21.9943C116.493 21.6042 116.366 21.1231 116.366 20.5511C116.366 20.0587 116.457 19.6515 116.639 19.3295C116.821 19.0076 117.069 18.75 117.384 18.5568C117.698 18.3636 118.052 18.2178 118.446 18.1193C118.844 18.017 119.255 17.9432 119.679 17.8977C120.19 17.8447 120.605 17.7973 120.923 17.7557C121.241 17.7102 121.473 17.642 121.616 17.5511C121.764 17.4564 121.838 17.3106 121.838 17.1136V17.0795C121.838 16.6515 121.711 16.3201 121.457 16.0852C121.204 15.8504 120.838 15.733 120.361 15.733C119.857 15.733 119.457 15.8428 119.162 16.0625C118.87 16.2822 118.673 16.5417 118.571 16.8409L116.651 16.5682C116.802 16.0379 117.052 15.5947 117.401 15.2386C117.749 14.8788 118.175 14.6098 118.679 14.4318C119.183 14.25 119.74 14.1591 120.349 14.1591C120.77 14.1591 121.188 14.2083 121.605 14.3068C122.022 14.4053 122.402 14.5682 122.747 14.7955C123.092 15.0189 123.368 15.3239 123.577 15.7102C123.789 16.0966 123.895 16.5795 123.895 17.1591V23H121.918V21.8011H121.849C121.724 22.0436 121.548 22.2708 121.321 22.483C121.098 22.6913 120.815 22.8598 120.474 22.9886C120.137 23.1136 119.741 23.1761 119.287 23.1761ZM119.821 21.6648C120.234 21.6648 120.592 21.5833 120.895 21.4205C121.198 21.2538 121.431 21.0341 121.594 20.7614C121.76 20.4886 121.844 20.1913 121.844 19.8693V18.8409C121.779 18.8939 121.67 18.9432 121.514 18.9886C121.363 19.0341 121.192 19.0739 121.003 19.108C120.813 19.142 120.626 19.1723 120.44 19.1989C120.255 19.2254 120.094 19.2481 119.957 19.267C119.651 19.3087 119.376 19.3769 119.134 19.4716C118.891 19.5663 118.7 19.6989 118.56 19.8693C118.42 20.036 118.349 20.2519 118.349 20.517C118.349 20.8958 118.488 21.1818 118.764 21.375C119.041 21.5682 119.393 21.6648 119.821 21.6648ZM125.963 23V14.2727H127.957V15.7273H128.048C128.207 15.2235 128.48 14.8352 128.866 14.5625C129.257 14.286 129.702 14.1477 130.202 14.1477C130.315 14.1477 130.442 14.1534 130.582 14.1648C130.726 14.1723 130.846 14.1856 130.94 14.2045V16.0966C130.853 16.0663 130.715 16.0398 130.526 16.017C130.34 15.9905 130.16 15.9773 129.986 15.9773C129.611 15.9773 129.274 16.0587 128.974 16.2216C128.679 16.3807 128.446 16.6023 128.276 16.8864C128.105 17.1705 128.02 17.4981 128.02 17.8693V23H125.963ZM135.754 23.1705C134.883 23.1705 134.135 22.9792 133.51 22.5966C132.889 22.214 132.41 21.6856 132.072 21.0114C131.739 20.3333 131.572 19.553 131.572 18.6705C131.572 17.7841 131.743 17.0019 132.084 16.3239C132.425 15.642 132.906 15.1117 133.527 14.733C134.152 14.3504 134.891 14.1591 135.743 14.1591C136.451 14.1591 137.078 14.2898 137.624 14.5511C138.173 14.8087 138.61 15.1742 138.936 15.6477C139.262 16.1174 139.447 16.6667 139.493 17.2955H137.527C137.447 16.875 137.258 16.5246 136.959 16.2443C136.663 15.9602 136.268 15.8182 135.771 15.8182C135.351 15.8182 134.982 15.9318 134.663 16.1591C134.345 16.3826 134.097 16.7045 133.919 17.125C133.745 17.5455 133.658 18.0492 133.658 18.6364C133.658 19.2311 133.745 19.7424 133.919 20.1705C134.093 20.5947 134.338 20.9223 134.652 21.1534C134.97 21.3807 135.343 21.4943 135.771 21.4943C136.074 21.4943 136.345 21.4375 136.584 21.3239C136.826 21.2064 137.029 21.0379 137.192 20.8182C137.355 20.5985 137.466 20.3314 137.527 20.017H139.493C139.444 20.6345 139.262 21.1818 138.947 21.6591C138.633 22.1326 138.205 22.5038 137.663 22.7727C137.122 23.0379 136.485 23.1705 135.754 23.1705ZM143.239 17.8864V23H141.182V11.3636H143.193V15.7557H143.295C143.5 15.2633 143.816 14.875 144.244 14.5909C144.676 14.303 145.225 14.1591 145.892 14.1591C146.498 14.1591 147.027 14.286 147.477 14.5398C147.928 14.7936 148.277 15.1648 148.523 15.6534C148.773 16.142 148.898 16.7386 148.898 17.4432V23H146.841V17.7614C146.841 17.1742 146.689 16.7178 146.386 16.392C146.087 16.0625 145.667 15.8977 145.125 15.8977C144.761 15.8977 144.436 15.9773 144.148 16.1364C143.864 16.2917 143.64 16.517 143.477 16.8125C143.318 17.108 143.239 17.4659 143.239 17.8864ZM154.858 23.1705C153.983 23.1705 153.227 22.9886 152.591 22.625C151.958 22.2576 151.472 21.7386 151.131 21.0682C150.79 20.3939 150.619 19.6004 150.619 18.6875C150.619 17.7898 150.79 17.0019 151.131 16.3239C151.475 15.642 151.956 15.1117 152.574 14.733C153.191 14.3504 153.917 14.1591 154.75 14.1591C155.288 14.1591 155.795 14.2462 156.273 14.4205C156.754 14.5909 157.178 14.8561 157.545 15.2159C157.917 15.5758 158.208 16.0341 158.42 16.5909C158.633 17.1439 158.739 17.803 158.739 18.5682V19.1989H151.585V17.8125H156.767C156.763 17.4186 156.678 17.0682 156.511 16.7614C156.345 16.4508 156.112 16.2064 155.812 16.0284C155.517 15.8504 155.172 15.7614 154.778 15.7614C154.358 15.7614 153.989 15.8636 153.67 16.0682C153.352 16.2689 153.104 16.5341 152.926 16.8636C152.752 17.1894 152.663 17.5473 152.659 17.9375V19.1477C152.659 19.6553 152.752 20.0909 152.938 20.4545C153.123 20.8144 153.383 21.0909 153.716 21.2841C154.049 21.4735 154.439 21.5682 154.886 21.5682C155.186 21.5682 155.456 21.5265 155.699 21.4432C155.941 21.3561 156.152 21.2292 156.33 21.0625C156.508 20.8958 156.642 20.6894 156.733 20.4432L158.653 20.6591C158.532 21.1667 158.301 21.6098 157.96 21.9886C157.623 22.3636 157.191 22.6553 156.665 22.8636C156.138 23.0682 155.536 23.1705 154.858 23.1705ZM167.376 16.5795L165.501 16.7841C165.448 16.5947 165.356 16.4167 165.223 16.25C165.094 16.0833 164.92 15.9489 164.7 15.8466C164.481 15.7443 164.212 15.6932 163.893 15.6932C163.465 15.6932 163.106 15.786 162.814 15.9716C162.526 16.1572 162.384 16.3977 162.388 16.6932C162.384 16.947 162.477 17.1534 162.666 17.3125C162.859 17.4716 163.178 17.6023 163.621 17.7045L165.109 18.0227C165.935 18.2008 166.549 18.483 166.95 18.8693C167.356 19.2557 167.56 19.7614 167.564 20.3864C167.56 20.9356 167.399 21.4205 167.081 21.8409C166.767 22.2576 166.329 22.5833 165.768 22.8182C165.208 23.053 164.564 23.1705 163.837 23.1705C162.768 23.1705 161.909 22.947 161.257 22.5C160.606 22.0492 160.217 21.4223 160.092 20.6193L162.098 20.4261C162.189 20.8201 162.382 21.1174 162.678 21.3182C162.973 21.5189 163.357 21.6193 163.831 21.6193C164.32 21.6193 164.712 21.5189 165.007 21.3182C165.306 21.1174 165.456 20.8693 165.456 20.5739C165.456 20.3239 165.359 20.1174 165.166 19.9545C164.977 19.7917 164.681 19.6667 164.28 19.5795L162.791 19.267C161.954 19.0928 161.335 18.7992 160.933 18.3864C160.532 17.9697 160.333 17.4432 160.337 16.8068C160.333 16.2689 160.479 15.803 160.774 15.4091C161.073 15.0114 161.488 14.7045 162.018 14.4886C162.553 14.2689 163.168 14.1591 163.865 14.1591C164.888 14.1591 165.693 14.3769 166.28 14.8125C166.871 15.2481 167.236 15.8371 167.376 16.5795Z" fill="url(#paint0_linear_65_4796)"/>
<path d="M205.417 7.41667L204.262 9.93751L201.75 11.0833L204.262 12.2383L205.417 14.75L206.563 12.2383L209.083 11.0833L206.563 9.93751M196.25 10.1667L193.958 15.2083L188.917 17.5L193.958 19.7917L196.25 24.8333L198.542 19.7917L203.583 17.5L198.542 15.2083M205.417 20.25L204.262 22.7617L201.75 23.9167L204.262 25.0625L205.417 27.5833L206.563 25.0625L209.083 23.9167L206.563 22.7617" fill="url(#paint1_linear_65_4796)"/>
<defs>
<linearGradient id="paint0_linear_65_4796" x1="23" y1="17" x2="169" y2="17" gradientUnits="userSpaceOnUse">
<stop offset="0.0240385" stop-color="#8712AE"/>
<stop offset="0.586538" stop-color="#3D4AD8"/>
</linearGradient>
<linearGradient id="paint1_linear_65_4796" x1="188.917" y1="17.5" x2="209.083" y2="17.5" gradientUnits="userSpaceOnUse">
<stop offset="0.0240385" stop-color="#8712AE"/>
<stop offset="0.586538" stop-color="#3D4AD8"/>
</linearGradient>
</defs>
</svg>
