<svg width="68" height="24" viewBox="0 0 68 24" fill="none" xmlns="http://www.w3.org/2000/svg">
<path d="M32.0009 7.62235C32.2275 7.39426 31.6062 2.22198 32.0009 1.10365C32.2787 0.316398 32.8853 0.198679 33.6382 0.132462C35.9992 -0.0882613 41.9272 -0.0809039 44.0688 0.610696C45.9254 1.21401 49.7191 5.14289 51.1225 6.74681C51.3271 6.98225 51.3125 7.37955 51.4953 7.45312C55.0257 7.83571 58.6366 7.9755 62.1598 8.51995C63.8117 8.77747 66.0119 8.90254 67.0133 10.4255C67.9196 11.794 67.1887 13.3979 67.4664 14.8474C67.5615 15.333 67.9489 15.4727 67.9927 16.2453C68.0658 17.5623 67.6053 19.1147 66.2896 19.6003C65.1567 20.0196 62.5837 19.8504 61.9259 20.2551C61.7578 20.3581 61.2315 21.5353 60.9537 21.8884C58.7901 24.6548 54.324 24.6328 52.0654 21.9841C51.5318 21.3587 51.3564 20.2404 50.6035 20.1521C40.7942 20.2109 30.9922 20.1006 21.1829 20.1742C20.3788 20.1742 20.2327 19.7253 19.6479 20.5273C19.3774 20.8952 19.2678 21.3293 18.9462 21.7413C16.556 24.7946 12.1849 24.7505 9.7728 21.7413C8.88835 20.6303 9.1515 19.4531 7.69691 19.2986C6.05228 19.1294 2.25867 19.225 0.972199 18.4084C-0.094984 17.7241 -0.263102 15.4065 0.336275 14.3765C0.445917 14.1852 0.789462 14.2441 0.862557 13.8247C1.11839 12.4415 0.416679 9.2557 1.19879 8.24773C1.30843 8.10794 1.87126 7.64442 1.98091 7.64442H31.9863L32.0009 7.62235ZM49.4705 7.62235C49.5436 7.32069 49.3463 7.27655 49.2147 7.09997C48.5569 6.23179 45.5015 3.29617 44.617 2.67078C44.0031 2.23669 42.49 1.6996 41.7737 1.6996H33.821C33.4336 1.6996 33.5651 2.20726 33.5651 2.31027V18.4157H50.6912C50.4865 12.3458 58.8924 10.1386 61.6189 15.5169C61.9113 16.0981 62.3206 18.2612 62.4448 18.3421C62.8907 18.6659 65.9388 18.2539 66.2165 17.5917C66.7355 16.3556 66.0703 15.9951 65.9315 15.0092C65.471 11.7352 67.2545 10.9479 63.0369 10.2637C58.9144 9.58678 54.5725 9.34399 50.4427 9.37342C45.7208 9.41021 40.9916 9.34399 36.2623 9.35135C34.9101 9.13798 35.5606 7.62235 35.9042 7.62235H49.4778H49.4705ZM31.8328 9.3587H2.42678V14.3176C2.42678 14.5163 1.81279 14.9724 1.73969 15.3624C1.44 16.9074 1.90781 17.0987 3.22352 17.3415C4.80967 17.6358 6.74668 17.5623 8.37669 17.7168C9.01993 15.3035 10.4526 13.1919 12.9743 12.5666C16.1101 11.7867 19.3482 13.7585 20.028 16.9663C20.1376 17.474 19.8964 18.0699 20.3277 18.4084H31.8328V9.3587ZM18.5295 18.2244C18.5295 15.9215 16.6729 14.0454 14.3778 14.0454C12.0826 14.0454 10.226 15.9142 10.226 18.2244C10.226 20.5347 12.0826 22.4035 14.3778 22.4035C16.6729 22.4035 18.5295 20.5347 18.5295 18.2244ZM60.6029 18.2318C60.6029 15.9289 58.7536 14.0675 56.4657 14.0675C54.1778 14.0675 52.3285 15.9289 52.3285 18.2318C52.3285 20.5347 54.1778 22.3961 56.4657 22.3961C58.7536 22.3961 60.6029 20.5347 60.6029 18.2318Z" fill="black"/>
</svg>
