<svg width="12" height="12" viewBox="0 0 12 12" fill="none" xmlns="http://www.w3.org/2000/svg">
<g clip-path="url(#clip0_14_6001)">
<path d="M10.2857 3.85707H8.14281C7.90611 3.85707 7.71423 4.04894 7.71423 4.28565C7.71423 4.52235 7.90611 4.71423 8.14281 4.71423H10.2857C10.5224 4.71423 10.7143 4.90611 10.7143 5.14281V10.7143C10.7143 10.951 10.5224 11.1429 10.2857 11.1429H1.71419C1.47749 11.1429 1.28561 10.951 1.28561 10.7143V5.14279C1.28561 4.90609 1.47749 4.71421 1.71419 4.71421H3.85706C4.09376 4.71421 4.28564 4.52233 4.28564 4.28562C4.28564 4.04892 4.09376 3.85704 3.85706 3.85704H1.71419C1.0041 3.85704 0.428467 4.43268 0.428467 5.14276V10.7142C0.428467 11.4243 1.0041 12 1.71419 12H10.2857C10.9958 12 11.5714 11.4243 11.5714 10.7142V5.14279C11.5714 4.4327 10.9958 3.85707 10.2857 3.85707Z" fill="black"/>
<path d="M8.44589 2.26836L6.30303 0.12549C6.13568 -0.04183 5.86437 -0.04183 5.69703 0.12549L3.55414 2.26836C3.38971 2.43861 3.39443 2.70992 3.56469 2.87435C3.73077 3.03477 3.99407 3.03477 4.16016 2.87435L5.57147 1.46305V8.57142C5.57147 8.80812 5.76335 9 6.00005 9C6.23676 9 6.42864 8.80812 6.42864 8.57142V1.46307L7.83994 2.87438C8.0102 3.03881 8.28151 3.03409 8.44594 2.86383C8.60631 2.69774 8.60631 2.43444 8.44589 2.26836Z" fill="black"/>
</g>
<defs>
<clipPath id="clip0_14_6001">
<rect width="12" height="12" fill="white"/>
</clipPath>
</defs>
</svg>
