<svg width="19" height="22" viewBox="0 0 19 22" fill="none" xmlns="http://www.w3.org/2000/svg">
<path d="M17.5088 7.87088C17.3916 7.9618 15.3218 9.12752 15.3218 11.7196C15.3218 14.7177 17.9552 15.7794 18.034 15.8057C18.0219 15.8703 17.6158 17.2583 16.6461 18.6725C15.7804 19.917 14.8783 21.1595 13.5045 21.1595C12.1297 21.1595 11.7761 20.3615 10.1901 20.3615C8.6446 20.3615 8.09507 21.1858 6.83844 21.1858C5.5818 21.1858 4.70397 20.0342 3.69684 18.62C2.52707 16.9593 1.58459 14.3773 1.58459 11.9297C1.58459 8.0022 4.13828 5.91926 6.65257 5.91926C7.988 5.91926 9.10119 6.79607 9.93962 6.79607C10.7377 6.79607 11.9822 5.86673 13.5014 5.86673C14.0772 5.86673 16.146 5.91825 17.5088 7.87088ZM12.7812 4.204C13.4085 3.4575 13.853 2.42309 13.853 1.38869C13.8539 1.25238 13.8411 1.11632 13.8146 0.982605C12.7923 1.02099 11.5761 1.66345 10.8427 2.51401C10.2669 3.16859 9.72951 4.20299 9.72951 5.25154C9.72951 5.40912 9.75578 5.56671 9.7679 5.61722C9.83255 5.62934 9.9376 5.64348 10.0427 5.64348C10.9599 5.64348 12.1135 5.02931 12.7802 4.20299L12.7812 4.204Z" stroke="#4B4848" stroke-width="1.51524" stroke-miterlimit="10" stroke-linejoin="round"/>
</svg>
