<svg width="18" height="18" viewBox="0 0 18 18" fill="none" xmlns="http://www.w3.org/2000/svg">
<path d="M6.5981 8.39817C6.43847 8.39817 6.28538 8.33476 6.17251 8.22189C6.05963 8.10901 5.99622 7.95592 5.99622 7.7963V5.9963C5.98812 5.91275 5.99758 5.82843 6.02399 5.74875C6.05041 5.66908 6.0932 5.59581 6.14962 5.53366C6.20604 5.4715 6.27483 5.42184 6.35158 5.38785C6.42833 5.35386 6.51134 5.3363 6.59528 5.3363C6.67922 5.3363 6.76224 5.35386 6.83899 5.38785C6.91574 5.42184 6.98453 5.4715 7.04095 5.53366C7.09736 5.59581 7.14016 5.66908 7.16657 5.74875C7.19299 5.82843 7.20245 5.91275 7.19435 5.9963V7.7963C7.19435 7.95495 7.13171 8.1072 7.02005 8.21991C6.90839 8.33262 6.75675 8.39669 6.5981 8.39817Z" fill="#050B20"/>
<path d="M9.00007 8.39808C8.84044 8.39808 8.68735 8.33467 8.57448 8.2218C8.4616 8.10892 8.39819 7.95584 8.39819 7.79621V5.39996C8.41264 5.25109 8.48199 5.11294 8.59274 5.01241C8.70348 4.91189 8.84769 4.8562 8.99726 4.8562C9.14682 4.8562 9.29103 4.91189 9.40178 5.01241C9.51252 5.11294 9.58188 5.25109 9.59632 5.39996V7.80183C9.59485 7.95951 9.53156 8.11032 9.42006 8.22182C9.30856 8.33333 9.15775 8.39662 9.00007 8.39808Z" fill="#050B20"/>
<path d="M11.4018 8.39811C11.2422 8.39811 11.0891 8.3347 10.9762 8.22183C10.8633 8.10895 10.7999 7.95586 10.7999 7.79624V4.20186C10.7918 4.11831 10.8013 4.034 10.8277 3.95432C10.8541 3.87465 10.8969 3.80138 10.9533 3.73922C11.0097 3.67707 11.0785 3.6274 11.1553 3.59342C11.232 3.55943 11.3151 3.54187 11.399 3.54187C11.4829 3.54187 11.5659 3.55943 11.6427 3.59342C11.7194 3.6274 11.7882 3.67707 11.8447 3.73922C11.9011 3.80138 11.9439 3.87465 11.9703 3.95432C11.9967 4.034 12.0062 4.11831 11.9981 4.20186V7.80186C11.9966 7.95954 11.9333 8.11035 11.8218 8.22185C11.7103 8.33336 11.5595 8.39665 11.4018 8.39811Z" fill="#050B20"/>
<path d="M13.7982 18H4.20193C3.56491 18 2.95398 17.7469 2.50355 17.2965C2.05311 16.8461 1.80005 16.2351 1.80005 15.5981V4.725C1.79937 4.28481 1.89581 3.8499 2.08249 3.45126C2.26917 3.05262 2.54149 2.70007 2.88005 2.41875L4.95005 0.6975C5.48866 0.248662 6.16707 0.00196472 6.86818 0L13.7982 0C14.4352 0 15.0461 0.253054 15.4966 0.703493C15.947 1.15393 16.2001 1.76486 16.2001 2.40188V15.5981C16.2001 16.2351 15.947 16.8461 15.4966 17.2965C15.0461 17.7469 14.4352 18 13.7982 18ZM6.86818 1.19813C6.4567 1.20462 6.05979 1.35148 5.74318 1.61437L3.64505 3.34125C3.44206 3.5101 3.27884 3.72167 3.16702 3.96086C3.05521 4.20005 2.99755 4.46096 2.99818 4.725V15.5981C2.99966 15.9154 3.12636 16.2193 3.35073 16.4437C3.57511 16.6681 3.879 16.7948 4.1963 16.7962H13.7982C14.1155 16.7948 14.4194 16.6681 14.6437 16.4437C14.8681 16.2193 14.9948 15.9154 14.9963 15.5981V2.40188C14.9948 2.08457 14.8681 1.78068 14.6437 1.55631C14.4194 1.33193 14.1155 1.20523 13.7982 1.20375L6.86818 1.19813Z" fill="#050B20"/>
<path d="M12.6 14.4H5.39998C5.31643 14.4081 5.23212 14.3987 5.15244 14.3723C5.07277 14.3458 4.9995 14.3031 4.93734 14.2466C4.87519 14.1902 4.82552 14.1214 4.79154 14.0447C4.75755 13.9679 4.73999 13.8849 4.73999 13.801C4.73999 13.717 4.75755 13.634 4.79154 13.5573C4.82552 13.4805 4.87519 13.4117 4.93734 13.3553C4.9995 13.2989 5.07277 13.2561 5.15244 13.2297C5.23212 13.2033 5.31643 13.1938 5.39998 13.2019H12.6C12.6835 13.1938 12.7678 13.2033 12.8475 13.2297C12.9272 13.2561 13.0005 13.2989 13.0626 13.3553C13.1248 13.4117 13.1744 13.4805 13.2084 13.5573C13.2424 13.634 13.26 13.717 13.26 13.801C13.26 13.8849 13.2424 13.9679 13.2084 14.0447C13.1744 14.1214 13.1248 14.1902 13.0626 14.2466C13.0005 14.3031 12.9272 14.3458 12.8475 14.3723C12.7678 14.3987 12.6835 14.4081 12.6 14.4Z" fill="#050B20"/>
<path d="M12.6 11.4019H5.39996C5.25109 11.3874 5.11294 11.3181 5.01241 11.2073C4.91189 11.0966 4.8562 10.9524 4.8562 10.8028C4.8562 10.6532 4.91189 10.509 5.01241 10.3983C5.11294 10.2875 5.25109 10.2182 5.39996 10.2037H12.6C12.6835 10.1956 12.7678 10.2051 12.8475 10.2315C12.9272 10.2579 13.0004 10.3007 13.0626 10.3571C13.1248 10.4136 13.1744 10.4823 13.2084 10.5591C13.2424 10.6359 13.26 10.7189 13.26 10.8028C13.26 10.8867 13.2424 10.9698 13.2084 11.0465C13.1744 11.1233 13.1248 11.1921 13.0626 11.2485C13.0004 11.3049 12.9272 11.3477 12.8475 11.3741C12.7678 11.4005 12.6835 11.41 12.6 11.4019Z" fill="#050B20"/>
</svg>
